<?xml version="1.0" encoding="utf-8"?>
<svg xmlns="http://www.w3.org/2000/svg" xmlns:xlink="http://www.w3.org/1999/xlink" width="600" height="400" viewBox="0 0 2400 1600">
<defs>
  <clipPath id="clip600">
    <rect x="0" y="0" width="2400" height="1600"/>
  </clipPath>
</defs>
<path clip-path="url(#clip600)" d="M0 1600 L2400 1600 L2400 0 L0 0  Z" fill="#282a36" fill-rule="evenodd" fill-opacity="1"/>
<defs>
  <clipPath id="clip601">
    <rect x="480" y="0" width="1681" height="1600"/>
  </clipPath>
</defs>
<path clip-path="url(#clip600)" d="M193.936 1486.45 L2352.76 1486.45 L2352.76 47.2441 L193.936 47.2441  Z" fill="#30343b" fill-rule="evenodd" fill-opacity="1"/>
<defs>
  <clipPath id="clip602">
    <rect x="193" y="47" width="2160" height="1440"/>
  </clipPath>
</defs>
<polyline clip-path="url(#clip602)" style="stroke:#f8f8f2; stroke-linecap:round; stroke-linejoin:round; stroke-width:2; stroke-opacity:0.1; fill:none" points="481.326,1486.45 481.326,47.2441 "/>
<polyline clip-path="url(#clip602)" style="stroke:#f8f8f2; stroke-linecap:round; stroke-linejoin:round; stroke-width:2; stroke-opacity:0.1; fill:none" points="933.909,1486.45 933.909,47.2441 "/>
<polyline clip-path="url(#clip602)" style="stroke:#f8f8f2; stroke-linecap:round; stroke-linejoin:round; stroke-width:2; stroke-opacity:0.1; fill:none" points="1386.49,1486.45 1386.49,47.2441 "/>
<polyline clip-path="url(#clip602)" style="stroke:#f8f8f2; stroke-linecap:round; stroke-linejoin:round; stroke-width:2; stroke-opacity:0.1; fill:none" points="1839.07,1486.45 1839.07,47.2441 "/>
<polyline clip-path="url(#clip602)" style="stroke:#f8f8f2; stroke-linecap:round; stroke-linejoin:round; stroke-width:2; stroke-opacity:0.1; fill:none" points="2291.66,1486.45 2291.66,47.2441 "/>
<polyline clip-path="url(#clip600)" style="stroke:#f8f8f2; stroke-linecap:round; stroke-linejoin:round; stroke-width:4; stroke-opacity:1; fill:none" points="193.936,1486.45 2352.76,1486.45 "/>
<polyline clip-path="url(#clip600)" style="stroke:#f8f8f2; stroke-linecap:round; stroke-linejoin:round; stroke-width:4; stroke-opacity:1; fill:none" points="481.326,1486.45 481.326,1467.55 "/>
<polyline clip-path="url(#clip600)" style="stroke:#f8f8f2; stroke-linecap:round; stroke-linejoin:round; stroke-width:4; stroke-opacity:1; fill:none" points="933.909,1486.45 933.909,1467.55 "/>
<polyline clip-path="url(#clip600)" style="stroke:#f8f8f2; stroke-linecap:round; stroke-linejoin:round; stroke-width:4; stroke-opacity:1; fill:none" points="1386.49,1486.45 1386.49,1467.55 "/>
<polyline clip-path="url(#clip600)" style="stroke:#f8f8f2; stroke-linecap:round; stroke-linejoin:round; stroke-width:4; stroke-opacity:1; fill:none" points="1839.07,1486.45 1839.07,1467.55 "/>
<polyline clip-path="url(#clip600)" style="stroke:#f8f8f2; stroke-linecap:round; stroke-linejoin:round; stroke-width:4; stroke-opacity:1; fill:none" points="2291.66,1486.45 2291.66,1467.55 "/>
<path clip-path="url(#clip600)" d="M475.979 1544.91 L492.298 1544.91 L492.298 1548.85 L470.354 1548.85 L470.354 1544.91 Q473.016 1542.16 477.599 1537.53 Q482.206 1532.88 483.386 1531.53 Q485.632 1529.01 486.511 1527.27 Q487.414 1525.51 487.414 1523.82 Q487.414 1521.07 485.47 1519.33 Q483.548 1517.6 480.446 1517.6 Q478.247 1517.6 475.794 1518.36 Q473.363 1519.13 470.585 1520.68 L470.585 1515.95 Q473.409 1514.82 475.863 1514.24 Q478.317 1513.66 480.354 1513.66 Q485.724 1513.66 488.919 1516.35 Q492.113 1519.03 492.113 1523.52 Q492.113 1525.65 491.303 1527.57 Q490.516 1529.47 488.409 1532.07 Q487.831 1532.74 484.729 1535.95 Q481.627 1539.15 475.979 1544.91 Z" fill="#f8f8f2" fill-rule="nonzero" fill-opacity="1" /><path clip-path="url(#clip600)" d="M936.918 1518.36 L925.113 1536.81 L936.918 1536.81 L936.918 1518.36 M935.691 1514.29 L941.571 1514.29 L941.571 1536.81 L946.501 1536.81 L946.501 1540.7 L941.571 1540.7 L941.571 1548.85 L936.918 1548.85 L936.918 1540.7 L921.316 1540.7 L921.316 1536.19 L935.691 1514.29 Z" fill="#f8f8f2" fill-rule="nonzero" fill-opacity="1" /><path clip-path="url(#clip600)" d="M1386.9 1529.7 Q1383.75 1529.7 1381.9 1531.86 Q1380.07 1534.01 1380.07 1537.76 Q1380.07 1541.49 1381.9 1543.66 Q1383.75 1545.82 1386.9 1545.82 Q1390.04 1545.82 1391.87 1543.66 Q1393.73 1541.49 1393.73 1537.76 Q1393.73 1534.01 1391.87 1531.86 Q1390.04 1529.7 1386.9 1529.7 M1396.18 1515.05 L1396.18 1519.31 Q1394.42 1518.48 1392.61 1518.04 Q1390.83 1517.6 1389.07 1517.6 Q1384.44 1517.6 1381.99 1520.72 Q1379.56 1523.85 1379.21 1530.17 Q1380.58 1528.15 1382.64 1527.09 Q1384.7 1526 1387.17 1526 Q1392.38 1526 1395.39 1529.17 Q1398.42 1532.32 1398.42 1537.76 Q1398.42 1543.08 1395.28 1546.3 Q1392.13 1549.52 1386.9 1549.52 Q1380.9 1549.52 1377.73 1544.94 Q1374.56 1540.33 1374.56 1531.6 Q1374.56 1523.41 1378.45 1518.55 Q1382.34 1513.66 1388.89 1513.66 Q1390.65 1513.66 1392.43 1514.01 Q1394.23 1514.36 1396.18 1515.05 Z" fill="#f8f8f2" fill-rule="nonzero" fill-opacity="1" /><path clip-path="url(#clip600)" d="M1839.07 1532.44 Q1835.74 1532.44 1833.82 1534.22 Q1831.92 1536 1831.92 1539.13 Q1831.92 1542.25 1833.82 1544.03 Q1835.74 1545.82 1839.07 1545.82 Q1842.41 1545.82 1844.33 1544.03 Q1846.25 1542.23 1846.25 1539.13 Q1846.25 1536 1844.33 1534.22 Q1842.43 1532.44 1839.07 1532.44 M1834.4 1530.45 Q1831.39 1529.7 1829.7 1527.64 Q1828.03 1525.58 1828.03 1522.62 Q1828.03 1518.48 1830.97 1516.07 Q1833.94 1513.66 1839.07 1513.66 Q1844.24 1513.66 1847.18 1516.07 Q1850.12 1518.48 1850.12 1522.62 Q1850.12 1525.58 1848.43 1527.64 Q1846.76 1529.7 1843.77 1530.45 Q1847.15 1531.23 1849.03 1533.52 Q1850.93 1535.82 1850.93 1539.13 Q1850.93 1544.15 1847.85 1546.83 Q1844.79 1549.52 1839.07 1549.52 Q1833.36 1549.52 1830.28 1546.83 Q1827.22 1544.15 1827.22 1539.13 Q1827.22 1535.82 1829.12 1533.52 Q1831.02 1531.23 1834.4 1530.45 M1832.69 1523.06 Q1832.69 1525.75 1834.35 1527.25 Q1836.04 1528.76 1839.07 1528.76 Q1842.08 1528.76 1843.77 1527.25 Q1845.49 1525.75 1845.49 1523.06 Q1845.49 1520.38 1843.77 1518.87 Q1842.08 1517.37 1839.07 1517.37 Q1836.04 1517.37 1834.35 1518.87 Q1832.69 1520.38 1832.69 1523.06 Z" fill="#f8f8f2" fill-rule="nonzero" fill-opacity="1" /><path clip-path="url(#clip600)" d="M2266.34 1544.91 L2273.98 1544.91 L2273.98 1518.55 L2265.67 1520.21 L2265.67 1515.95 L2273.94 1514.29 L2278.61 1514.29 L2278.61 1544.91 L2286.25 1544.91 L2286.25 1548.85 L2266.34 1548.85 L2266.34 1544.91 Z" fill="#f8f8f2" fill-rule="nonzero" fill-opacity="1" /><path clip-path="url(#clip600)" d="M2305.7 1517.37 Q2302.09 1517.37 2300.26 1520.93 Q2298.45 1524.47 2298.45 1531.6 Q2298.45 1538.71 2300.26 1542.27 Q2302.09 1545.82 2305.7 1545.82 Q2309.33 1545.82 2311.14 1542.27 Q2312.96 1538.71 2312.96 1531.6 Q2312.96 1524.47 2311.14 1520.93 Q2309.33 1517.37 2305.7 1517.37 M2305.7 1513.66 Q2311.51 1513.66 2314.56 1518.27 Q2317.64 1522.85 2317.64 1531.6 Q2317.64 1540.33 2314.56 1544.94 Q2311.51 1549.52 2305.7 1549.52 Q2299.89 1549.52 2296.81 1544.94 Q2293.75 1540.33 2293.75 1531.6 Q2293.75 1522.85 2296.81 1518.27 Q2299.89 1513.66 2305.7 1513.66 Z" fill="#f8f8f2" fill-rule="nonzero" fill-opacity="1" /><polyline clip-path="url(#clip602)" style="stroke:#f8f8f2; stroke-linecap:round; stroke-linejoin:round; stroke-width:2; stroke-opacity:0.1; fill:none" points="193.936,1447.88 2352.76,1447.88 "/>
<polyline clip-path="url(#clip602)" style="stroke:#f8f8f2; stroke-linecap:round; stroke-linejoin:round; stroke-width:2; stroke-opacity:0.1; fill:none" points="193.936,1105.97 2352.76,1105.97 "/>
<polyline clip-path="url(#clip602)" style="stroke:#f8f8f2; stroke-linecap:round; stroke-linejoin:round; stroke-width:2; stroke-opacity:0.1; fill:none" points="193.936,764.064 2352.76,764.064 "/>
<polyline clip-path="url(#clip602)" style="stroke:#f8f8f2; stroke-linecap:round; stroke-linejoin:round; stroke-width:2; stroke-opacity:0.1; fill:none" points="193.936,422.155 2352.76,422.155 "/>
<polyline clip-path="url(#clip602)" style="stroke:#f8f8f2; stroke-linecap:round; stroke-linejoin:round; stroke-width:2; stroke-opacity:0.1; fill:none" points="193.936,80.2461 2352.76,80.2461 "/>
<polyline clip-path="url(#clip600)" style="stroke:#f8f8f2; stroke-linecap:round; stroke-linejoin:round; stroke-width:4; stroke-opacity:1; fill:none" points="193.936,1486.45 193.936,47.2441 "/>
<polyline clip-path="url(#clip600)" style="stroke:#f8f8f2; stroke-linecap:round; stroke-linejoin:round; stroke-width:4; stroke-opacity:1; fill:none" points="193.936,1447.88 212.834,1447.88 "/>
<polyline clip-path="url(#clip600)" style="stroke:#f8f8f2; stroke-linecap:round; stroke-linejoin:round; stroke-width:4; stroke-opacity:1; fill:none" points="193.936,1105.97 212.834,1105.97 "/>
<polyline clip-path="url(#clip600)" style="stroke:#f8f8f2; stroke-linecap:round; stroke-linejoin:round; stroke-width:4; stroke-opacity:1; fill:none" points="193.936,764.064 212.834,764.064 "/>
<polyline clip-path="url(#clip600)" style="stroke:#f8f8f2; stroke-linecap:round; stroke-linejoin:round; stroke-width:4; stroke-opacity:1; fill:none" points="193.936,422.155 212.834,422.155 "/>
<polyline clip-path="url(#clip600)" style="stroke:#f8f8f2; stroke-linecap:round; stroke-linejoin:round; stroke-width:4; stroke-opacity:1; fill:none" points="193.936,80.2461 212.834,80.2461 "/>
<path clip-path="url(#clip600)" d="M50.9921 1448.33 L80.6679 1448.33 L80.6679 1452.27 L50.9921 1452.27 L50.9921 1448.33 Z" fill="#f8f8f2" fill-rule="nonzero" fill-opacity="1" /><path clip-path="url(#clip600)" d="M91.5706 1461.23 L99.2095 1461.23 L99.2095 1434.86 L90.8993 1436.53 L90.8993 1432.27 L99.1632 1430.6 L103.839 1430.6 L103.839 1461.23 L111.478 1461.23 L111.478 1465.16 L91.5706 1465.16 L91.5706 1461.23 Z" fill="#f8f8f2" fill-rule="nonzero" fill-opacity="1" /><path clip-path="url(#clip600)" d="M120.922 1459.28 L125.807 1459.28 L125.807 1465.16 L120.922 1465.16 L120.922 1459.28 Z" fill="#f8f8f2" fill-rule="nonzero" fill-opacity="1" /><path clip-path="url(#clip600)" d="M145.992 1433.68 Q142.381 1433.68 140.552 1437.24 Q138.746 1440.79 138.746 1447.92 Q138.746 1455.02 140.552 1458.59 Q142.381 1462.13 145.992 1462.13 Q149.626 1462.13 151.431 1458.59 Q153.26 1455.02 153.26 1447.92 Q153.26 1440.79 151.431 1437.24 Q149.626 1433.68 145.992 1433.68 M145.992 1429.98 Q151.802 1429.98 154.857 1434.58 Q157.936 1439.17 157.936 1447.92 Q157.936 1456.64 154.857 1461.25 Q151.802 1465.83 145.992 1465.83 Q140.181 1465.83 137.103 1461.25 Q134.047 1456.64 134.047 1447.92 Q134.047 1439.17 137.103 1434.58 Q140.181 1429.98 145.992 1429.98 Z" fill="#f8f8f2" fill-rule="nonzero" fill-opacity="1" /><path clip-path="url(#clip600)" d="M51.9875 1106.42 L81.6633 1106.42 L81.6633 1110.36 L51.9875 1110.36 L51.9875 1106.42 Z" fill="#f8f8f2" fill-rule="nonzero" fill-opacity="1" /><path clip-path="url(#clip600)" d="M101.756 1091.77 Q98.1447 1091.77 96.316 1095.34 Q94.5104 1098.88 94.5104 1106.01 Q94.5104 1113.11 96.316 1116.68 Q98.1447 1120.22 101.756 1120.22 Q105.39 1120.22 107.196 1116.68 Q109.024 1113.11 109.024 1106.01 Q109.024 1098.88 107.196 1095.34 Q105.39 1091.77 101.756 1091.77 M101.756 1088.07 Q107.566 1088.07 110.621 1092.67 Q113.7 1097.26 113.7 1106.01 Q113.7 1114.73 110.621 1119.34 Q107.566 1123.92 101.756 1123.92 Q95.9456 1123.92 92.8669 1119.34 Q89.8114 1114.73 89.8114 1106.01 Q89.8114 1097.26 92.8669 1092.67 Q95.9456 1088.07 101.756 1088.07 Z" fill="#f8f8f2" fill-rule="nonzero" fill-opacity="1" /><path clip-path="url(#clip600)" d="M121.918 1117.37 L126.802 1117.37 L126.802 1123.25 L121.918 1123.25 L121.918 1117.37 Z" fill="#f8f8f2" fill-rule="nonzero" fill-opacity="1" /><path clip-path="url(#clip600)" d="M137.033 1088.69 L155.39 1088.69 L155.39 1092.63 L141.316 1092.63 L141.316 1101.1 Q142.334 1100.75 143.353 1100.59 Q144.371 1100.41 145.39 1100.41 Q151.177 1100.41 154.556 1103.58 Q157.936 1106.75 157.936 1112.16 Q157.936 1117.74 154.464 1120.84 Q150.992 1123.92 144.672 1123.92 Q142.496 1123.92 140.228 1123.55 Q137.982 1123.18 135.575 1122.44 L135.575 1117.74 Q137.658 1118.88 139.881 1119.43 Q142.103 1119.99 144.58 1119.99 Q148.584 1119.99 150.922 1117.88 Q153.26 1115.78 153.26 1112.16 Q153.26 1108.55 150.922 1106.45 Q148.584 1104.34 144.58 1104.34 Q142.705 1104.34 140.83 1104.76 Q138.978 1105.17 137.033 1106.05 L137.033 1088.69 Z" fill="#f8f8f2" fill-rule="nonzero" fill-opacity="1" /><path clip-path="url(#clip600)" d="M100.76 749.862 Q97.1493 749.862 95.3206 753.427 Q93.515 756.969 93.515 764.098 Q93.515 771.205 95.3206 774.77 Q97.1493 778.311 100.76 778.311 Q104.395 778.311 106.2 774.77 Q108.029 771.205 108.029 764.098 Q108.029 756.969 106.2 753.427 Q104.395 749.862 100.76 749.862 M100.76 746.159 Q106.571 746.159 109.626 750.765 Q112.705 755.348 112.705 764.098 Q112.705 772.825 109.626 777.432 Q106.571 782.015 100.76 782.015 Q94.9502 782.015 91.8715 777.432 Q88.816 772.825 88.816 764.098 Q88.816 755.348 91.8715 750.765 Q94.9502 746.159 100.76 746.159 Z" fill="#f8f8f2" fill-rule="nonzero" fill-opacity="1" /><path clip-path="url(#clip600)" d="M120.922 775.464 L125.807 775.464 L125.807 781.344 L120.922 781.344 L120.922 775.464 Z" fill="#f8f8f2" fill-rule="nonzero" fill-opacity="1" /><path clip-path="url(#clip600)" d="M145.992 749.862 Q142.381 749.862 140.552 753.427 Q138.746 756.969 138.746 764.098 Q138.746 771.205 140.552 774.77 Q142.381 778.311 145.992 778.311 Q149.626 778.311 151.431 774.77 Q153.26 771.205 153.26 764.098 Q153.26 756.969 151.431 753.427 Q149.626 749.862 145.992 749.862 M145.992 746.159 Q151.802 746.159 154.857 750.765 Q157.936 755.348 157.936 764.098 Q157.936 772.825 154.857 777.432 Q151.802 782.015 145.992 782.015 Q140.181 782.015 137.103 777.432 Q134.047 772.825 134.047 764.098 Q134.047 755.348 137.103 750.765 Q140.181 746.159 145.992 746.159 Z" fill="#f8f8f2" fill-rule="nonzero" fill-opacity="1" /><path clip-path="url(#clip600)" d="M101.756 407.954 Q98.1447 407.954 96.316 411.518 Q94.5104 415.06 94.5104 422.19 Q94.5104 429.296 96.316 432.861 Q98.1447 436.402 101.756 436.402 Q105.39 436.402 107.196 432.861 Q109.024 429.296 109.024 422.19 Q109.024 415.06 107.196 411.518 Q105.39 407.954 101.756 407.954 M101.756 404.25 Q107.566 404.25 110.621 408.856 Q113.7 413.44 113.7 422.19 Q113.7 430.916 110.621 435.523 Q107.566 440.106 101.756 440.106 Q95.9456 440.106 92.8669 435.523 Q89.8114 430.916 89.8114 422.19 Q89.8114 413.44 92.8669 408.856 Q95.9456 404.25 101.756 404.25 Z" fill="#f8f8f2" fill-rule="nonzero" fill-opacity="1" /><path clip-path="url(#clip600)" d="M121.918 433.555 L126.802 433.555 L126.802 439.435 L121.918 439.435 L121.918 433.555 Z" fill="#f8f8f2" fill-rule="nonzero" fill-opacity="1" /><path clip-path="url(#clip600)" d="M137.033 404.875 L155.39 404.875 L155.39 408.81 L141.316 408.81 L141.316 417.282 Q142.334 416.935 143.353 416.773 Q144.371 416.588 145.39 416.588 Q151.177 416.588 154.556 419.759 Q157.936 422.93 157.936 428.347 Q157.936 433.926 154.464 437.027 Q150.992 440.106 144.672 440.106 Q142.496 440.106 140.228 439.736 Q137.982 439.365 135.575 438.625 L135.575 433.926 Q137.658 435.06 139.881 435.615 Q142.103 436.171 144.58 436.171 Q148.584 436.171 150.922 434.065 Q153.26 431.958 153.26 428.347 Q153.26 424.736 150.922 422.629 Q148.584 420.523 144.58 420.523 Q142.705 420.523 140.83 420.94 Q138.978 421.356 137.033 422.236 L137.033 404.875 Z" fill="#f8f8f2" fill-rule="nonzero" fill-opacity="1" /><path clip-path="url(#clip600)" d="M91.5706 93.591 L99.2095 93.591 L99.2095 67.2254 L90.8993 68.892 L90.8993 64.6328 L99.1632 62.9661 L103.839 62.9661 L103.839 93.591 L111.478 93.591 L111.478 97.5261 L91.5706 97.5261 L91.5706 93.591 Z" fill="#f8f8f2" fill-rule="nonzero" fill-opacity="1" /><path clip-path="url(#clip600)" d="M120.922 91.6465 L125.807 91.6465 L125.807 97.5261 L120.922 97.5261 L120.922 91.6465 Z" fill="#f8f8f2" fill-rule="nonzero" fill-opacity="1" /><path clip-path="url(#clip600)" d="M145.992 66.0448 Q142.381 66.0448 140.552 69.6096 Q138.746 73.1512 138.746 80.2808 Q138.746 87.3873 140.552 90.9521 Q142.381 94.4937 145.992 94.4937 Q149.626 94.4937 151.431 90.9521 Q153.26 87.3873 153.26 80.2808 Q153.26 73.1512 151.431 69.6096 Q149.626 66.0448 145.992 66.0448 M145.992 62.3411 Q151.802 62.3411 154.857 66.9476 Q157.936 71.5309 157.936 80.2808 Q157.936 89.0076 154.857 93.6141 Q151.802 98.1974 145.992 98.1974 Q140.181 98.1974 137.103 93.6141 Q134.047 89.0076 134.047 80.2808 Q134.047 71.5309 137.103 66.9476 Q140.181 62.3411 145.992 62.3411 Z" fill="#f8f8f2" fill-rule="nonzero" fill-opacity="1" /><circle clip-path="url(#clip602)" cx="255.035" cy="394.595" r="14.4" fill="#8be9fd" fill-rule="evenodd" fill-opacity="1" stroke="#f8f8f2" stroke-opacity="1" stroke-width="3.2"/>
<circle clip-path="url(#clip602)" cx="481.326" cy="863.559" r="14.4" fill="#8be9fd" fill-rule="evenodd" fill-opacity="1" stroke="#f8f8f2" stroke-opacity="1" stroke-width="3.2"/>
<circle clip-path="url(#clip602)" cx="707.617" cy="963.833" r="14.4" fill="#8be9fd" fill-rule="evenodd" fill-opacity="1" stroke="#f8f8f2" stroke-opacity="1" stroke-width="3.2"/>
<circle clip-path="url(#clip602)" cx="933.909" cy="496.105" r="14.4" fill="#8be9fd" fill-rule="evenodd" fill-opacity="1" stroke="#f8f8f2" stroke-opacity="1" stroke-width="3.2"/>
<circle clip-path="url(#clip602)" cx="1160.2" cy="225.411" r="14.4" fill="#8be9fd" fill-rule="evenodd" fill-opacity="1" stroke="#f8f8f2" stroke-opacity="1" stroke-width="3.2"/>
<circle clip-path="url(#clip602)" cx="1386.49" cy="1255.03" r="14.4" fill="#8be9fd" fill-rule="evenodd" fill-opacity="1" stroke="#f8f8f2" stroke-opacity="1" stroke-width="3.2"/>
<circle clip-path="url(#clip602)" cx="1612.78" cy="1341.09" r="14.4" fill="#8be9fd" fill-rule="evenodd" fill-opacity="1" stroke="#f8f8f2" stroke-opacity="1" stroke-width="3.2"/>
<circle clip-path="url(#clip602)" cx="1839.07" cy="1445.72" r="14.4" fill="#8be9fd" fill-rule="evenodd" fill-opacity="1" stroke="#f8f8f2" stroke-opacity="1" stroke-width="3.2"/>
<circle clip-path="url(#clip602)" cx="2065.37" cy="87.9763" r="14.4" fill="#8be9fd" fill-rule="evenodd" fill-opacity="1" stroke="#f8f8f2" stroke-opacity="1" stroke-width="3.2"/>
<circle clip-path="url(#clip602)" cx="2291.66" cy="379.499" r="14.4" fill="#8be9fd" fill-rule="evenodd" fill-opacity="1" stroke="#f8f8f2" stroke-opacity="1" stroke-width="3.2"/>
</svg>
