<?xml version="1.0" encoding="utf-8"?>
<svg xmlns="http://www.w3.org/2000/svg" xmlns:xlink="http://www.w3.org/1999/xlink" width="600" height="400" viewBox="0 0 2400 1600">
<defs>
  <clipPath id="clip510">
    <rect x="0" y="0" width="2400" height="1600"/>
  </clipPath>
</defs>
<path clip-path="url(#clip510)" d="M0 1600 L2400 1600 L2400 0 L0 0  Z" fill="#282a36" fill-rule="evenodd" fill-opacity="1"/>
<defs>
  <clipPath id="clip511">
    <rect x="480" y="0" width="1681" height="1600"/>
  </clipPath>
</defs>
<path clip-path="url(#clip510)" d="M193.936 1486.45 L2352.76 1486.45 L2352.76 47.2441 L193.936 47.2441  Z" fill="#30343b" fill-rule="evenodd" fill-opacity="1"/>
<defs>
  <clipPath id="clip512">
    <rect x="193" y="47" width="2160" height="1440"/>
  </clipPath>
</defs>
<polyline clip-path="url(#clip512)" style="stroke:#f8f8f2; stroke-linecap:round; stroke-linejoin:round; stroke-width:2; stroke-opacity:0.1; fill:none" points="481.326,1486.45 481.326,47.2441 "/>
<polyline clip-path="url(#clip512)" style="stroke:#f8f8f2; stroke-linecap:round; stroke-linejoin:round; stroke-width:2; stroke-opacity:0.1; fill:none" points="933.909,1486.45 933.909,47.2441 "/>
<polyline clip-path="url(#clip512)" style="stroke:#f8f8f2; stroke-linecap:round; stroke-linejoin:round; stroke-width:2; stroke-opacity:0.1; fill:none" points="1386.49,1486.45 1386.49,47.2441 "/>
<polyline clip-path="url(#clip512)" style="stroke:#f8f8f2; stroke-linecap:round; stroke-linejoin:round; stroke-width:2; stroke-opacity:0.1; fill:none" points="1839.07,1486.45 1839.07,47.2441 "/>
<polyline clip-path="url(#clip512)" style="stroke:#f8f8f2; stroke-linecap:round; stroke-linejoin:round; stroke-width:2; stroke-opacity:0.1; fill:none" points="2291.66,1486.45 2291.66,47.2441 "/>
<polyline clip-path="url(#clip510)" style="stroke:#f8f8f2; stroke-linecap:round; stroke-linejoin:round; stroke-width:4; stroke-opacity:1; fill:none" points="193.936,1486.45 2352.76,1486.45 "/>
<polyline clip-path="url(#clip510)" style="stroke:#f8f8f2; stroke-linecap:round; stroke-linejoin:round; stroke-width:4; stroke-opacity:1; fill:none" points="481.326,1486.45 481.326,1467.55 "/>
<polyline clip-path="url(#clip510)" style="stroke:#f8f8f2; stroke-linecap:round; stroke-linejoin:round; stroke-width:4; stroke-opacity:1; fill:none" points="933.909,1486.45 933.909,1467.55 "/>
<polyline clip-path="url(#clip510)" style="stroke:#f8f8f2; stroke-linecap:round; stroke-linejoin:round; stroke-width:4; stroke-opacity:1; fill:none" points="1386.49,1486.45 1386.49,1467.55 "/>
<polyline clip-path="url(#clip510)" style="stroke:#f8f8f2; stroke-linecap:round; stroke-linejoin:round; stroke-width:4; stroke-opacity:1; fill:none" points="1839.07,1486.45 1839.07,1467.55 "/>
<polyline clip-path="url(#clip510)" style="stroke:#f8f8f2; stroke-linecap:round; stroke-linejoin:round; stroke-width:4; stroke-opacity:1; fill:none" points="2291.66,1486.45 2291.66,1467.55 "/>
<path clip-path="url(#clip510)" d="M475.979 1544.91 L492.298 1544.91 L492.298 1548.85 L470.354 1548.85 L470.354 1544.91 Q473.016 1542.16 477.599 1537.53 Q482.206 1532.88 483.386 1531.53 Q485.632 1529.01 486.511 1527.27 Q487.414 1525.51 487.414 1523.82 Q487.414 1521.07 485.47 1519.33 Q483.548 1517.6 480.446 1517.6 Q478.247 1517.6 475.794 1518.36 Q473.363 1519.13 470.585 1520.68 L470.585 1515.95 Q473.409 1514.82 475.863 1514.24 Q478.317 1513.66 480.354 1513.66 Q485.724 1513.66 488.919 1516.35 Q492.113 1519.03 492.113 1523.52 Q492.113 1525.65 491.303 1527.57 Q490.516 1529.47 488.409 1532.07 Q487.831 1532.74 484.729 1535.95 Q481.627 1539.15 475.979 1544.91 Z" fill="#f8f8f2" fill-rule="nonzero" fill-opacity="1" /><path clip-path="url(#clip510)" d="M936.918 1518.36 L925.113 1536.81 L936.918 1536.81 L936.918 1518.36 M935.691 1514.29 L941.571 1514.29 L941.571 1536.81 L946.501 1536.81 L946.501 1540.7 L941.571 1540.7 L941.571 1548.85 L936.918 1548.85 L936.918 1540.7 L921.316 1540.7 L921.316 1536.19 L935.691 1514.29 Z" fill="#f8f8f2" fill-rule="nonzero" fill-opacity="1" /><path clip-path="url(#clip510)" d="M1386.9 1529.7 Q1383.75 1529.7 1381.9 1531.86 Q1380.07 1534.01 1380.07 1537.76 Q1380.07 1541.49 1381.9 1543.66 Q1383.75 1545.82 1386.9 1545.82 Q1390.04 1545.82 1391.87 1543.66 Q1393.73 1541.49 1393.73 1537.76 Q1393.73 1534.01 1391.87 1531.86 Q1390.04 1529.7 1386.9 1529.7 M1396.18 1515.05 L1396.18 1519.31 Q1394.42 1518.48 1392.61 1518.04 Q1390.83 1517.6 1389.07 1517.6 Q1384.44 1517.6 1381.99 1520.72 Q1379.56 1523.85 1379.21 1530.17 Q1380.58 1528.15 1382.64 1527.09 Q1384.7 1526 1387.17 1526 Q1392.38 1526 1395.39 1529.17 Q1398.42 1532.32 1398.42 1537.76 Q1398.42 1543.08 1395.28 1546.3 Q1392.13 1549.52 1386.9 1549.52 Q1380.9 1549.52 1377.73 1544.94 Q1374.56 1540.33 1374.56 1531.6 Q1374.56 1523.41 1378.45 1518.55 Q1382.34 1513.66 1388.89 1513.66 Q1390.65 1513.66 1392.43 1514.01 Q1394.23 1514.36 1396.18 1515.05 Z" fill="#f8f8f2" fill-rule="nonzero" fill-opacity="1" /><path clip-path="url(#clip510)" d="M1839.07 1532.44 Q1835.74 1532.44 1833.82 1534.22 Q1831.92 1536 1831.92 1539.13 Q1831.92 1542.25 1833.82 1544.03 Q1835.74 1545.82 1839.07 1545.82 Q1842.41 1545.82 1844.33 1544.03 Q1846.25 1542.23 1846.25 1539.13 Q1846.25 1536 1844.33 1534.22 Q1842.43 1532.44 1839.07 1532.44 M1834.4 1530.45 Q1831.39 1529.7 1829.7 1527.64 Q1828.03 1525.58 1828.03 1522.62 Q1828.03 1518.48 1830.97 1516.07 Q1833.94 1513.66 1839.07 1513.66 Q1844.24 1513.66 1847.18 1516.07 Q1850.12 1518.48 1850.12 1522.62 Q1850.12 1525.58 1848.43 1527.64 Q1846.76 1529.7 1843.77 1530.45 Q1847.15 1531.23 1849.03 1533.52 Q1850.93 1535.82 1850.93 1539.13 Q1850.93 1544.15 1847.85 1546.83 Q1844.79 1549.52 1839.07 1549.52 Q1833.36 1549.52 1830.28 1546.83 Q1827.22 1544.15 1827.22 1539.13 Q1827.22 1535.82 1829.12 1533.52 Q1831.02 1531.23 1834.4 1530.45 M1832.69 1523.06 Q1832.69 1525.75 1834.35 1527.25 Q1836.04 1528.76 1839.07 1528.76 Q1842.08 1528.76 1843.77 1527.25 Q1845.49 1525.75 1845.49 1523.06 Q1845.49 1520.38 1843.77 1518.87 Q1842.08 1517.37 1839.07 1517.37 Q1836.04 1517.37 1834.35 1518.87 Q1832.69 1520.38 1832.69 1523.06 Z" fill="#f8f8f2" fill-rule="nonzero" fill-opacity="1" /><path clip-path="url(#clip510)" d="M2266.34 1544.91 L2273.98 1544.91 L2273.98 1518.55 L2265.67 1520.21 L2265.67 1515.95 L2273.94 1514.29 L2278.61 1514.29 L2278.61 1544.91 L2286.25 1544.91 L2286.25 1548.85 L2266.34 1548.85 L2266.34 1544.91 Z" fill="#f8f8f2" fill-rule="nonzero" fill-opacity="1" /><path clip-path="url(#clip510)" d="M2305.7 1517.37 Q2302.09 1517.37 2300.26 1520.93 Q2298.45 1524.47 2298.45 1531.6 Q2298.45 1538.71 2300.26 1542.27 Q2302.09 1545.82 2305.7 1545.82 Q2309.33 1545.82 2311.14 1542.27 Q2312.96 1538.71 2312.96 1531.6 Q2312.96 1524.47 2311.14 1520.93 Q2309.33 1517.37 2305.7 1517.37 M2305.7 1513.66 Q2311.51 1513.66 2314.56 1518.27 Q2317.64 1522.85 2317.64 1531.6 Q2317.64 1540.33 2314.56 1544.94 Q2311.51 1549.52 2305.7 1549.52 Q2299.89 1549.52 2296.81 1544.94 Q2293.75 1540.33 2293.75 1531.6 Q2293.75 1522.85 2296.81 1518.27 Q2299.89 1513.66 2305.7 1513.66 Z" fill="#f8f8f2" fill-rule="nonzero" fill-opacity="1" /><polyline clip-path="url(#clip512)" style="stroke:#f8f8f2; stroke-linecap:round; stroke-linejoin:round; stroke-width:2; stroke-opacity:0.1; fill:none" points="193.936,1445.77 2352.76,1445.77 "/>
<polyline clip-path="url(#clip512)" style="stroke:#f8f8f2; stroke-linecap:round; stroke-linejoin:round; stroke-width:2; stroke-opacity:0.1; fill:none" points="193.936,1106.3 2352.76,1106.3 "/>
<polyline clip-path="url(#clip512)" style="stroke:#f8f8f2; stroke-linecap:round; stroke-linejoin:round; stroke-width:2; stroke-opacity:0.1; fill:none" points="193.936,766.824 2352.76,766.824 "/>
<polyline clip-path="url(#clip512)" style="stroke:#f8f8f2; stroke-linecap:round; stroke-linejoin:round; stroke-width:2; stroke-opacity:0.1; fill:none" points="193.936,427.352 2352.76,427.352 "/>
<polyline clip-path="url(#clip512)" style="stroke:#f8f8f2; stroke-linecap:round; stroke-linejoin:round; stroke-width:2; stroke-opacity:0.1; fill:none" points="193.936,87.8803 2352.76,87.8803 "/>
<polyline clip-path="url(#clip510)" style="stroke:#f8f8f2; stroke-linecap:round; stroke-linejoin:round; stroke-width:4; stroke-opacity:1; fill:none" points="193.936,1486.45 193.936,47.2441 "/>
<polyline clip-path="url(#clip510)" style="stroke:#f8f8f2; stroke-linecap:round; stroke-linejoin:round; stroke-width:4; stroke-opacity:1; fill:none" points="193.936,1445.77 212.834,1445.77 "/>
<polyline clip-path="url(#clip510)" style="stroke:#f8f8f2; stroke-linecap:round; stroke-linejoin:round; stroke-width:4; stroke-opacity:1; fill:none" points="193.936,1106.3 212.834,1106.3 "/>
<polyline clip-path="url(#clip510)" style="stroke:#f8f8f2; stroke-linecap:round; stroke-linejoin:round; stroke-width:4; stroke-opacity:1; fill:none" points="193.936,766.824 212.834,766.824 "/>
<polyline clip-path="url(#clip510)" style="stroke:#f8f8f2; stroke-linecap:round; stroke-linejoin:round; stroke-width:4; stroke-opacity:1; fill:none" points="193.936,427.352 212.834,427.352 "/>
<polyline clip-path="url(#clip510)" style="stroke:#f8f8f2; stroke-linecap:round; stroke-linejoin:round; stroke-width:4; stroke-opacity:1; fill:none" points="193.936,87.8803 212.834,87.8803 "/>
<path clip-path="url(#clip510)" d="M50.9921 1446.22 L80.6679 1446.22 L80.6679 1450.15 L50.9921 1450.15 L50.9921 1446.22 Z" fill="#f8f8f2" fill-rule="nonzero" fill-opacity="1" /><path clip-path="url(#clip510)" d="M91.5706 1459.11 L99.2095 1459.11 L99.2095 1432.75 L90.8993 1434.41 L90.8993 1430.15 L99.1632 1428.49 L103.839 1428.49 L103.839 1459.11 L111.478 1459.11 L111.478 1463.05 L91.5706 1463.05 L91.5706 1459.11 Z" fill="#f8f8f2" fill-rule="nonzero" fill-opacity="1" /><path clip-path="url(#clip510)" d="M120.922 1457.17 L125.807 1457.17 L125.807 1463.05 L120.922 1463.05 L120.922 1457.17 Z" fill="#f8f8f2" fill-rule="nonzero" fill-opacity="1" /><path clip-path="url(#clip510)" d="M145.992 1431.57 Q142.381 1431.57 140.552 1435.13 Q138.746 1438.67 138.746 1445.8 Q138.746 1452.91 140.552 1456.47 Q142.381 1460.02 145.992 1460.02 Q149.626 1460.02 151.431 1456.47 Q153.26 1452.91 153.26 1445.8 Q153.26 1438.67 151.431 1435.13 Q149.626 1431.57 145.992 1431.57 M145.992 1427.86 Q151.802 1427.86 154.857 1432.47 Q157.936 1437.05 157.936 1445.8 Q157.936 1454.53 154.857 1459.14 Q151.802 1463.72 145.992 1463.72 Q140.181 1463.72 137.103 1459.14 Q134.047 1454.53 134.047 1445.8 Q134.047 1437.05 137.103 1432.47 Q140.181 1427.86 145.992 1427.86 Z" fill="#f8f8f2" fill-rule="nonzero" fill-opacity="1" /><path clip-path="url(#clip510)" d="M51.9875 1106.75 L81.6633 1106.75 L81.6633 1110.68 L51.9875 1110.68 L51.9875 1106.75 Z" fill="#f8f8f2" fill-rule="nonzero" fill-opacity="1" /><path clip-path="url(#clip510)" d="M101.756 1092.09 Q98.1447 1092.09 96.316 1095.66 Q94.5104 1099.2 94.5104 1106.33 Q94.5104 1113.44 96.316 1117 Q98.1447 1120.54 101.756 1120.54 Q105.39 1120.54 107.196 1117 Q109.024 1113.44 109.024 1106.33 Q109.024 1099.2 107.196 1095.66 Q105.39 1092.09 101.756 1092.09 M101.756 1088.39 Q107.566 1088.39 110.621 1093 Q113.7 1097.58 113.7 1106.33 Q113.7 1115.06 110.621 1119.66 Q107.566 1124.25 101.756 1124.25 Q95.9456 1124.25 92.8669 1119.66 Q89.8114 1115.06 89.8114 1106.33 Q89.8114 1097.58 92.8669 1093 Q95.9456 1088.39 101.756 1088.39 Z" fill="#f8f8f2" fill-rule="nonzero" fill-opacity="1" /><path clip-path="url(#clip510)" d="M121.918 1117.7 L126.802 1117.7 L126.802 1123.58 L121.918 1123.58 L121.918 1117.7 Z" fill="#f8f8f2" fill-rule="nonzero" fill-opacity="1" /><path clip-path="url(#clip510)" d="M137.033 1089.02 L155.39 1089.02 L155.39 1092.95 L141.316 1092.95 L141.316 1101.42 Q142.334 1101.08 143.353 1100.91 Q144.371 1100.73 145.39 1100.73 Q151.177 1100.73 154.556 1103.9 Q157.936 1107.07 157.936 1112.49 Q157.936 1118.07 154.464 1121.17 Q150.992 1124.25 144.672 1124.25 Q142.496 1124.25 140.228 1123.88 Q137.982 1123.51 135.575 1122.77 L135.575 1118.07 Q137.658 1119.2 139.881 1119.76 Q142.103 1120.31 144.58 1120.31 Q148.584 1120.31 150.922 1118.21 Q153.26 1116.1 153.26 1112.49 Q153.26 1108.88 150.922 1106.77 Q148.584 1104.66 144.58 1104.66 Q142.705 1104.66 140.83 1105.08 Q138.978 1105.5 137.033 1106.38 L137.033 1089.02 Z" fill="#f8f8f2" fill-rule="nonzero" fill-opacity="1" /><path clip-path="url(#clip510)" d="M100.76 752.623 Q97.1493 752.623 95.3206 756.188 Q93.515 759.729 93.515 766.859 Q93.515 773.965 95.3206 777.53 Q97.1493 781.072 100.76 781.072 Q104.395 781.072 106.2 777.53 Q108.029 773.965 108.029 766.859 Q108.029 759.729 106.2 756.188 Q104.395 752.623 100.76 752.623 M100.76 748.919 Q106.571 748.919 109.626 753.526 Q112.705 758.109 112.705 766.859 Q112.705 775.586 109.626 780.192 Q106.571 784.775 100.76 784.775 Q94.9502 784.775 91.8715 780.192 Q88.816 775.586 88.816 766.859 Q88.816 758.109 91.8715 753.526 Q94.9502 748.919 100.76 748.919 Z" fill="#f8f8f2" fill-rule="nonzero" fill-opacity="1" /><path clip-path="url(#clip510)" d="M120.922 778.224 L125.807 778.224 L125.807 784.104 L120.922 784.104 L120.922 778.224 Z" fill="#f8f8f2" fill-rule="nonzero" fill-opacity="1" /><path clip-path="url(#clip510)" d="M145.992 752.623 Q142.381 752.623 140.552 756.188 Q138.746 759.729 138.746 766.859 Q138.746 773.965 140.552 777.53 Q142.381 781.072 145.992 781.072 Q149.626 781.072 151.431 777.53 Q153.26 773.965 153.26 766.859 Q153.26 759.729 151.431 756.188 Q149.626 752.623 145.992 752.623 M145.992 748.919 Q151.802 748.919 154.857 753.526 Q157.936 758.109 157.936 766.859 Q157.936 775.586 154.857 780.192 Q151.802 784.775 145.992 784.775 Q140.181 784.775 137.103 780.192 Q134.047 775.586 134.047 766.859 Q134.047 758.109 137.103 753.526 Q140.181 748.919 145.992 748.919 Z" fill="#f8f8f2" fill-rule="nonzero" fill-opacity="1" /><path clip-path="url(#clip510)" d="M101.756 413.151 Q98.1447 413.151 96.316 416.716 Q94.5104 420.257 94.5104 427.387 Q94.5104 434.493 96.316 438.058 Q98.1447 441.6 101.756 441.6 Q105.39 441.6 107.196 438.058 Q109.024 434.493 109.024 427.387 Q109.024 420.257 107.196 416.716 Q105.39 413.151 101.756 413.151 M101.756 409.447 Q107.566 409.447 110.621 414.054 Q113.7 418.637 113.7 427.387 Q113.7 436.114 110.621 440.72 Q107.566 445.303 101.756 445.303 Q95.9456 445.303 92.8669 440.72 Q89.8114 436.114 89.8114 427.387 Q89.8114 418.637 92.8669 414.054 Q95.9456 409.447 101.756 409.447 Z" fill="#f8f8f2" fill-rule="nonzero" fill-opacity="1" /><path clip-path="url(#clip510)" d="M121.918 438.753 L126.802 438.753 L126.802 444.632 L121.918 444.632 L121.918 438.753 Z" fill="#f8f8f2" fill-rule="nonzero" fill-opacity="1" /><path clip-path="url(#clip510)" d="M137.033 410.072 L155.39 410.072 L155.39 414.007 L141.316 414.007 L141.316 422.48 Q142.334 422.132 143.353 421.97 Q144.371 421.785 145.39 421.785 Q151.177 421.785 154.556 424.956 Q157.936 428.128 157.936 433.544 Q157.936 439.123 154.464 442.225 Q150.992 445.303 144.672 445.303 Q142.496 445.303 140.228 444.933 Q137.982 444.563 135.575 443.822 L135.575 439.123 Q137.658 440.257 139.881 440.813 Q142.103 441.368 144.58 441.368 Q148.584 441.368 150.922 439.262 Q153.26 437.155 153.26 433.544 Q153.26 429.933 150.922 427.827 Q148.584 425.72 144.58 425.72 Q142.705 425.72 140.83 426.137 Q138.978 426.554 137.033 427.433 L137.033 410.072 Z" fill="#f8f8f2" fill-rule="nonzero" fill-opacity="1" /><path clip-path="url(#clip510)" d="M91.5706 101.225 L99.2095 101.225 L99.2095 74.8595 L90.8993 76.5262 L90.8993 72.267 L99.1632 70.6003 L103.839 70.6003 L103.839 101.225 L111.478 101.225 L111.478 105.16 L91.5706 105.16 L91.5706 101.225 Z" fill="#f8f8f2" fill-rule="nonzero" fill-opacity="1" /><path clip-path="url(#clip510)" d="M120.922 99.2807 L125.807 99.2807 L125.807 105.16 L120.922 105.16 L120.922 99.2807 Z" fill="#f8f8f2" fill-rule="nonzero" fill-opacity="1" /><path clip-path="url(#clip510)" d="M145.992 73.679 Q142.381 73.679 140.552 77.2438 Q138.746 80.7854 138.746 87.915 Q138.746 95.0215 140.552 98.5863 Q142.381 102.128 145.992 102.128 Q149.626 102.128 151.431 98.5863 Q153.26 95.0215 153.26 87.915 Q153.26 80.7854 151.431 77.2438 Q149.626 73.679 145.992 73.679 M145.992 69.9753 Q151.802 69.9753 154.857 74.5818 Q157.936 79.1651 157.936 87.915 Q157.936 96.6418 154.857 101.248 Q151.802 105.832 145.992 105.832 Q140.181 105.832 137.103 101.248 Q134.047 96.6418 134.047 87.915 Q134.047 79.1651 137.103 74.5818 Q140.181 69.9753 145.992 69.9753 Z" fill="#f8f8f2" fill-rule="nonzero" fill-opacity="1" /><polyline clip-path="url(#clip512)" style="stroke:#8be9fd; stroke-linecap:round; stroke-linejoin:round; stroke-width:4; stroke-opacity:1; fill:none" points="255.035,195.513 277.664,161.744 300.293,134.022 322.922,112.622 345.551,97.7591 368.18,89.5811 390.81,88.1698 413.439,93.5394 436.068,105.636 458.697,124.34 481.326,149.462 503.955,180.753 526.584,217.9 549.213,260.532 571.843,308.223 594.472,360.495 617.101,416.828 639.73,476.657 662.359,539.386 684.988,604.387 707.617,671.011 730.247,738.593 752.876,806.457 775.505,873.925 798.134,940.322 820.763,1004.99 843.392,1067.27 866.021,1126.55 888.651,1182.24 911.28,1233.78 933.909,1280.65 956.538,1322.39 979.167,1358.57 1001.8,1388.85 1024.43,1412.91 1047.05,1430.51 1069.68,1441.48 1092.31,1445.72 1114.94,1443.16 1137.57,1433.85 1160.2,1417.88 1182.83,1395.4 1205.46,1366.64 1228.09,1331.89 1250.72,1291.49 1273.35,1245.85 1295.98,1195.42 1318.6,1140.71 1341.23,1082.26 1363.86,1020.67 1386.49,956.531 1409.12,890.502 1431.75,823.237 1454.38,755.408 1477.01,687.694 1499.64,620.77 1522.27,555.305 1544.9,491.954 1567.52,431.349 1590.15,374.096 1612.78,320.767 1635.41,271.895 1658.04,227.968 1680.67,189.425 1703.3,156.652 1725.93,129.975 1748.56,109.661 1771.19,95.9134 1793.82,88.8693 1816.45,88.5991 1839.07,95.1055 1861.7,108.323 1884.33,128.121 1906.96,154.3 1929.59,186.599 1952.22,224.696 1974.85,268.21 1997.48,316.705 2020.11,369.698 2042.74,426.659 2065.37,487.019 2087.99,550.174 2110.62,615.494 2133.25,682.326 2155.88,750.003 2178.51,817.847 2201.14,885.182 2223.77,951.334 2246.4,1015.64 2269.03,1077.47 2291.66,1136.18 "/>
<polyline clip-path="url(#clip512)" style="stroke:#ff79c6; stroke-linecap:round; stroke-linejoin:round; stroke-width:4; stroke-opacity:1; fill:none" points="255.035,399.989 277.664,458.858 300.293,520.804 322.922,585.207 345.551,651.426 368.18,718.797 390.81,786.649 413.439,854.302 436.068,921.081 458.697,986.319 481.326,1049.36 503.955,1109.59 526.584,1166.38 549.213,1219.19 571.843,1267.47 594.472,1310.76 617.101,1348.6 639.73,1380.64 662.359,1406.54 684.988,1426.05 707.617,1438.97 730.247,1445.18 752.876,1444.61 775.505,1437.27 798.134,1423.23 820.763,1402.63 843.392,1375.67 866.021,1342.64 888.651,1303.85 911.28,1259.69 933.909,1210.61 956.538,1157.1 979.167,1099.68 1001.8,1038.94 1024.43,975.486 1047.05,909.943 1069.68,842.969 1092.31,775.235 1114.94,707.417 1137.57,640.193 1160.2,574.233 1182.83,510.198 1205.46,448.728 1228.09,390.435 1250.72,335.903 1273.35,285.677 1295.98,240.258 1318.6,200.101 1341.23,165.606 1363.86,137.118 1386.49,114.922 1409.12,99.2401 1431.75,90.228 1454.38,87.9763 1477.01,92.5074 1499.64,103.776 1522.27,121.67 1544.9,146.009 1567.52,176.552 1590.15,212.993 1612.78,254.967 1635.41,302.055 1658.04,353.788 1680.67,409.647 1703.3,469.075 1725.93,531.478 1748.56,596.233 1771.19,662.692 1793.82,730.191 1816.45,798.057 1839.07,865.61 1861.7,932.177 1884.33,997.091 1906.96,1059.7 1929.59,1119.39 1952.22,1175.56 1974.85,1227.64 1997.48,1275.11 2020.11,1317.51 2042.74,1354.41 2065.37,1385.43 2087.99,1410.27 2110.62,1428.69 2133.25,1440.49 2155.88,1445.56 2178.51,1443.85 2201.14,1435.37 2223.77,1420.22 2246.4,1398.53 2269.03,1370.53 2291.66,1336.51 "/>
<path clip-path="url(#clip510)" d="M1926.79 250.738 L2280.8 250.738 L2280.8 95.2176 L1926.79 95.2176  Z" fill="#282a36" fill-rule="evenodd" fill-opacity="1"/>
<polyline clip-path="url(#clip510)" style="stroke:#f8f8f2; stroke-linecap:round; stroke-linejoin:round; stroke-width:4; stroke-opacity:1; fill:none" points="1926.79,250.738 2280.8,250.738 2280.8,95.2176 1926.79,95.2176 1926.79,250.738 "/>
<polyline clip-path="url(#clip510)" style="stroke:#8be9fd; stroke-linecap:round; stroke-linejoin:round; stroke-width:4; stroke-opacity:1; fill:none" points="1950.78,147.058 2094.7,147.058 "/>
<path clip-path="url(#clip510)" d="M2137.11 139.176 L2137.11 143.203 Q2135.3 142.277 2133.36 141.815 Q2131.42 141.352 2129.33 141.352 Q2126.16 141.352 2124.56 142.324 Q2122.99 143.296 2122.99 145.24 Q2122.99 146.722 2124.12 147.578 Q2125.26 148.412 2128.68 149.176 L2130.14 149.5 Q2134.68 150.472 2136.58 152.254 Q2138.5 154.014 2138.5 157.185 Q2138.5 160.796 2135.63 162.902 Q2132.78 165.009 2127.78 165.009 Q2125.7 165.009 2123.43 164.592 Q2121.18 164.199 2118.68 163.388 L2118.68 158.99 Q2121.05 160.217 2123.34 160.842 Q2125.63 161.444 2127.87 161.444 Q2130.88 161.444 2132.5 160.426 Q2134.12 159.384 2134.12 157.509 Q2134.12 155.773 2132.94 154.847 Q2131.79 153.921 2127.83 153.064 L2126.35 152.717 Q2122.39 151.884 2120.63 150.171 Q2118.87 148.435 2118.87 145.426 Q2118.87 141.768 2121.46 139.778 Q2124.05 137.787 2128.82 137.787 Q2131.18 137.787 2133.27 138.134 Q2135.35 138.481 2137.11 139.176 Z" fill="#f8f8f2" fill-rule="nonzero" fill-opacity="1" /><path clip-path="url(#clip510)" d="M2145.28 138.412 L2149.54 138.412 L2149.54 164.338 L2145.28 164.338 L2145.28 138.412 M2145.28 128.319 L2149.54 128.319 L2149.54 133.713 L2145.28 133.713 L2145.28 128.319 Z" fill="#f8f8f2" fill-rule="nonzero" fill-opacity="1" /><path clip-path="url(#clip510)" d="M2180 148.689 L2180 164.338 L2175.74 164.338 L2175.74 148.828 Q2175.74 145.148 2174.31 143.319 Q2172.87 141.49 2170 141.49 Q2166.55 141.49 2164.56 143.69 Q2162.57 145.889 2162.57 149.685 L2162.57 164.338 L2158.29 164.338 L2158.29 138.412 L2162.57 138.412 L2162.57 142.44 Q2164.1 140.102 2166.16 138.944 Q2168.24 137.787 2170.95 137.787 Q2175.42 137.787 2177.71 140.565 Q2180 143.319 2180 148.689 Z" fill="#f8f8f2" fill-rule="nonzero" fill-opacity="1" /><path clip-path="url(#clip510)" d="M2198.73 128.366 Q2195.63 133.69 2194.12 138.898 Q2192.62 144.106 2192.62 149.453 Q2192.62 154.801 2194.12 160.055 Q2195.65 165.287 2198.73 170.588 L2195.03 170.588 Q2191.55 165.148 2189.82 159.893 Q2188.11 154.639 2188.11 149.453 Q2188.11 144.291 2189.82 139.06 Q2191.53 133.828 2195.03 128.366 L2198.73 128.366 Z" fill="#f8f8f2" fill-rule="nonzero" fill-opacity="1" /><path clip-path="url(#clip510)" d="M2228.54 138.412 L2219.17 151.027 L2229.03 164.338 L2224.01 164.338 L2216.46 154.152 L2208.92 164.338 L2203.89 164.338 L2213.96 150.773 L2204.75 138.412 L2209.77 138.412 L2216.65 147.648 L2223.52 138.412 L2228.54 138.412 Z" fill="#f8f8f2" fill-rule="nonzero" fill-opacity="1" /><path clip-path="url(#clip510)" d="M2234.38 128.366 L2238.08 128.366 Q2241.55 133.828 2243.27 139.06 Q2245 144.291 2245 149.453 Q2245 154.639 2243.27 159.893 Q2241.55 165.148 2238.08 170.588 L2234.38 170.588 Q2237.46 165.287 2238.96 160.055 Q2240.49 154.801 2240.49 149.453 Q2240.49 144.106 2238.96 138.898 Q2237.46 133.69 2234.38 128.366 Z" fill="#f8f8f2" fill-rule="nonzero" fill-opacity="1" /><polyline clip-path="url(#clip510)" style="stroke:#ff79c6; stroke-linecap:round; stroke-linejoin:round; stroke-width:4; stroke-opacity:1; fill:none" points="1950.78,198.898 2094.7,198.898 "/>
<path clip-path="url(#clip510)" d="M2139.19 191.247 L2139.19 195.229 Q2137.39 194.233 2135.56 193.747 Q2133.75 193.238 2131.9 193.238 Q2127.76 193.238 2125.47 195.877 Q2123.17 198.492 2123.17 203.238 Q2123.17 207.983 2125.47 210.622 Q2127.76 213.238 2131.9 213.238 Q2133.75 213.238 2135.56 212.752 Q2137.39 212.242 2139.19 211.247 L2139.19 215.182 Q2137.41 216.016 2135.49 216.432 Q2133.59 216.849 2131.44 216.849 Q2125.58 216.849 2122.13 213.168 Q2118.68 209.488 2118.68 203.238 Q2118.68 196.895 2122.16 193.261 Q2125.65 189.627 2131.72 189.627 Q2133.68 189.627 2135.56 190.043 Q2137.43 190.437 2139.19 191.247 Z" fill="#f8f8f2" fill-rule="nonzero" fill-opacity="1" /><path clip-path="url(#clip510)" d="M2156.65 193.238 Q2153.22 193.238 2151.23 195.923 Q2149.24 198.585 2149.24 203.238 Q2149.24 207.891 2151.21 210.576 Q2153.2 213.238 2156.65 213.238 Q2160.05 213.238 2162.04 210.553 Q2164.03 207.867 2164.03 203.238 Q2164.03 198.631 2162.04 195.946 Q2160.05 193.238 2156.65 193.238 M2156.65 189.627 Q2162.2 189.627 2165.37 193.238 Q2168.54 196.849 2168.54 203.238 Q2168.54 209.604 2165.37 213.238 Q2162.2 216.849 2156.65 216.849 Q2151.07 216.849 2147.9 213.238 Q2144.75 209.604 2144.75 203.238 Q2144.75 196.849 2147.9 193.238 Q2151.07 189.627 2156.65 189.627 Z" fill="#f8f8f2" fill-rule="nonzero" fill-opacity="1" /><path clip-path="url(#clip510)" d="M2192.13 191.016 L2192.13 195.043 Q2190.33 194.117 2188.38 193.655 Q2186.44 193.192 2184.36 193.192 Q2181.18 193.192 2179.59 194.164 Q2178.01 195.136 2178.01 197.08 Q2178.01 198.562 2179.15 199.418 Q2180.28 200.252 2183.71 201.016 L2185.17 201.34 Q2189.7 202.312 2191.6 204.094 Q2193.52 205.854 2193.52 209.025 Q2193.52 212.636 2190.65 214.742 Q2187.8 216.849 2182.8 216.849 Q2180.72 216.849 2178.45 216.432 Q2176.21 216.039 2173.71 215.228 L2173.71 210.83 Q2176.07 212.057 2178.36 212.682 Q2180.65 213.284 2182.9 213.284 Q2185.91 213.284 2187.53 212.266 Q2189.15 211.224 2189.15 209.349 Q2189.15 207.613 2187.97 206.687 Q2186.81 205.761 2182.85 204.904 L2181.37 204.557 Q2177.41 203.724 2175.65 202.011 Q2173.89 200.275 2173.89 197.266 Q2173.89 193.608 2176.48 191.618 Q2179.08 189.627 2183.85 189.627 Q2186.21 189.627 2188.29 189.974 Q2190.37 190.321 2192.13 191.016 Z" fill="#f8f8f2" fill-rule="nonzero" fill-opacity="1" /><path clip-path="url(#clip510)" d="M2210.54 180.206 Q2207.43 185.53 2205.93 190.738 Q2204.42 195.946 2204.42 201.293 Q2204.42 206.641 2205.93 211.895 Q2207.46 217.127 2210.54 222.428 L2206.83 222.428 Q2203.36 216.988 2201.62 211.733 Q2199.91 206.479 2199.91 201.293 Q2199.91 196.131 2201.62 190.9 Q2203.34 185.668 2206.83 180.206 L2210.54 180.206 Z" fill="#f8f8f2" fill-rule="nonzero" fill-opacity="1" /><path clip-path="url(#clip510)" d="M2240.35 190.252 L2230.98 202.867 L2240.84 216.178 L2235.81 216.178 L2228.27 205.992 L2220.72 216.178 L2215.7 216.178 L2225.77 202.613 L2216.55 190.252 L2221.58 190.252 L2228.45 199.488 L2235.33 190.252 L2240.35 190.252 Z" fill="#f8f8f2" fill-rule="nonzero" fill-opacity="1" /><path clip-path="url(#clip510)" d="M2246.18 180.206 L2249.89 180.206 Q2253.36 185.668 2255.07 190.9 Q2256.81 196.131 2256.81 201.293 Q2256.81 206.479 2255.07 211.733 Q2253.36 216.988 2249.89 222.428 L2246.18 222.428 Q2249.26 217.127 2250.77 211.895 Q2252.29 206.641 2252.29 201.293 Q2252.29 195.946 2250.77 190.738 Q2249.26 185.53 2246.18 180.206 Z" fill="#f8f8f2" fill-rule="nonzero" fill-opacity="1" /></svg>
