<?xml version="1.0" encoding="utf-8"?>
<svg xmlns="http://www.w3.org/2000/svg" xmlns:xlink="http://www.w3.org/1999/xlink" width="600" height="400" viewBox="0 0 2400 1600">
<defs>
  <clipPath id="clip780">
    <rect x="0" y="0" width="2400" height="1600"/>
  </clipPath>
</defs>
<path clip-path="url(#clip780)" d="M0 1600 L2400 1600 L2400 0 L0 0  Z" fill="#282a36" fill-rule="evenodd" fill-opacity="1"/>
<defs>
  <clipPath id="clip781">
    <rect x="480" y="0" width="1681" height="1600"/>
  </clipPath>
</defs>
<path clip-path="url(#clip780)" d="M202.177 1486.45 L2352.76 1486.45 L2352.76 47.2441 L202.177 47.2441  Z" fill="#30343b" fill-rule="evenodd" fill-opacity="1"/>
<defs>
  <clipPath id="clip782">
    <rect x="202" y="47" width="2152" height="1440"/>
  </clipPath>
</defs>
<polyline clip-path="url(#clip782)" style="stroke:#f8f8f2; stroke-linecap:round; stroke-linejoin:round; stroke-width:2; stroke-opacity:0.1; fill:none" points="442.633,1486.45 442.633,47.2441 "/>
<polyline clip-path="url(#clip782)" style="stroke:#f8f8f2; stroke-linecap:round; stroke-linejoin:round; stroke-width:2; stroke-opacity:0.1; fill:none" points="849.869,1486.45 849.869,47.2441 "/>
<polyline clip-path="url(#clip782)" style="stroke:#f8f8f2; stroke-linecap:round; stroke-linejoin:round; stroke-width:2; stroke-opacity:0.1; fill:none" points="1257.1,1486.45 1257.1,47.2441 "/>
<polyline clip-path="url(#clip782)" style="stroke:#f8f8f2; stroke-linecap:round; stroke-linejoin:round; stroke-width:2; stroke-opacity:0.1; fill:none" points="1664.34,1486.45 1664.34,47.2441 "/>
<polyline clip-path="url(#clip782)" style="stroke:#f8f8f2; stroke-linecap:round; stroke-linejoin:round; stroke-width:2; stroke-opacity:0.1; fill:none" points="2071.58,1486.45 2071.58,47.2441 "/>
<polyline clip-path="url(#clip780)" style="stroke:#f8f8f2; stroke-linecap:round; stroke-linejoin:round; stroke-width:4; stroke-opacity:1; fill:none" points="202.177,1486.45 2352.76,1486.45 "/>
<polyline clip-path="url(#clip780)" style="stroke:#f8f8f2; stroke-linecap:round; stroke-linejoin:round; stroke-width:4; stroke-opacity:1; fill:none" points="442.633,1486.45 442.633,1467.55 "/>
<polyline clip-path="url(#clip780)" style="stroke:#f8f8f2; stroke-linecap:round; stroke-linejoin:round; stroke-width:4; stroke-opacity:1; fill:none" points="849.869,1486.45 849.869,1467.55 "/>
<polyline clip-path="url(#clip780)" style="stroke:#f8f8f2; stroke-linecap:round; stroke-linejoin:round; stroke-width:4; stroke-opacity:1; fill:none" points="1257.1,1486.45 1257.1,1467.55 "/>
<polyline clip-path="url(#clip780)" style="stroke:#f8f8f2; stroke-linecap:round; stroke-linejoin:round; stroke-width:4; stroke-opacity:1; fill:none" points="1664.34,1486.45 1664.34,1467.55 "/>
<polyline clip-path="url(#clip780)" style="stroke:#f8f8f2; stroke-linecap:round; stroke-linejoin:round; stroke-width:4; stroke-opacity:1; fill:none" points="2071.58,1486.45 2071.58,1467.55 "/>
<path clip-path="url(#clip780)" d="M411.534 1532.02 L441.209 1532.02 L441.209 1535.95 L411.534 1535.95 L411.534 1532.02 Z" fill="#f8f8f2" fill-rule="nonzero" fill-opacity="1" /><path clip-path="url(#clip780)" d="M464.149 1518.36 L452.344 1536.81 L464.149 1536.81 L464.149 1518.36 M462.922 1514.29 L468.802 1514.29 L468.802 1536.81 L473.732 1536.81 L473.732 1540.7 L468.802 1540.7 L468.802 1548.85 L464.149 1548.85 L464.149 1540.7 L448.547 1540.7 L448.547 1536.19 L462.922 1514.29 Z" fill="#f8f8f2" fill-rule="nonzero" fill-opacity="1" /><path clip-path="url(#clip780)" d="M819.811 1532.02 L849.487 1532.02 L849.487 1535.95 L819.811 1535.95 L819.811 1532.02 Z" fill="#f8f8f2" fill-rule="nonzero" fill-opacity="1" /><path clip-path="url(#clip780)" d="M863.607 1544.91 L879.927 1544.91 L879.927 1548.85 L857.982 1548.85 L857.982 1544.91 Q860.644 1542.16 865.228 1537.53 Q869.834 1532.88 871.015 1531.53 Q873.26 1529.01 874.14 1527.27 Q875.042 1525.51 875.042 1523.82 Q875.042 1521.07 873.098 1519.33 Q871.177 1517.6 868.075 1517.6 Q865.876 1517.6 863.422 1518.36 Q860.991 1519.13 858.214 1520.68 L858.214 1515.95 Q861.038 1514.82 863.491 1514.24 Q865.945 1513.66 867.982 1513.66 Q873.352 1513.66 876.547 1516.35 Q879.741 1519.03 879.741 1523.52 Q879.741 1525.65 878.931 1527.57 Q878.144 1529.47 876.038 1532.07 Q875.459 1532.74 872.357 1535.95 Q869.255 1539.15 863.607 1544.91 Z" fill="#f8f8f2" fill-rule="nonzero" fill-opacity="1" /><path clip-path="url(#clip780)" d="M1257.1 1517.37 Q1253.49 1517.37 1251.66 1520.93 Q1249.86 1524.47 1249.86 1531.6 Q1249.86 1538.71 1251.66 1542.27 Q1253.49 1545.82 1257.1 1545.82 Q1260.74 1545.82 1262.54 1542.27 Q1264.37 1538.71 1264.37 1531.6 Q1264.37 1524.47 1262.54 1520.93 Q1260.74 1517.37 1257.1 1517.37 M1257.1 1513.66 Q1262.91 1513.66 1265.97 1518.27 Q1269.05 1522.85 1269.05 1531.6 Q1269.05 1540.33 1265.97 1544.94 Q1262.91 1549.52 1257.1 1549.52 Q1251.29 1549.52 1248.22 1544.94 Q1245.16 1540.33 1245.16 1531.6 Q1245.16 1522.85 1248.22 1518.27 Q1251.29 1513.66 1257.1 1513.66 Z" fill="#f8f8f2" fill-rule="nonzero" fill-opacity="1" /><path clip-path="url(#clip780)" d="M1658.99 1544.91 L1675.31 1544.91 L1675.31 1548.85 L1653.37 1548.85 L1653.37 1544.91 Q1656.03 1542.16 1660.61 1537.53 Q1665.22 1532.88 1666.4 1531.53 Q1668.65 1529.01 1669.53 1527.27 Q1670.43 1525.51 1670.43 1523.82 Q1670.43 1521.07 1668.48 1519.33 Q1666.56 1517.6 1663.46 1517.6 Q1661.26 1517.6 1658.81 1518.36 Q1656.38 1519.13 1653.6 1520.68 L1653.6 1515.95 Q1656.42 1514.82 1658.88 1514.24 Q1661.33 1513.66 1663.37 1513.66 Q1668.74 1513.66 1671.93 1516.35 Q1675.13 1519.03 1675.13 1523.52 Q1675.13 1525.65 1674.32 1527.57 Q1673.53 1529.47 1671.42 1532.07 Q1670.84 1532.74 1667.74 1535.95 Q1664.64 1539.15 1658.99 1544.91 Z" fill="#f8f8f2" fill-rule="nonzero" fill-opacity="1" /><path clip-path="url(#clip780)" d="M2074.59 1518.36 L2062.78 1536.81 L2074.59 1536.81 L2074.59 1518.36 M2073.36 1514.29 L2079.24 1514.29 L2079.24 1536.81 L2084.17 1536.81 L2084.17 1540.7 L2079.24 1540.7 L2079.24 1548.85 L2074.59 1548.85 L2074.59 1540.7 L2058.98 1540.7 L2058.98 1536.19 L2073.36 1514.29 Z" fill="#f8f8f2" fill-rule="nonzero" fill-opacity="1" /><polyline clip-path="url(#clip782)" style="stroke:#f8f8f2; stroke-linecap:round; stroke-linejoin:round; stroke-width:2; stroke-opacity:0.1; fill:none" points="202.177,1486.45 2352.76,1486.45 "/>
<polyline clip-path="url(#clip782)" style="stroke:#f8f8f2; stroke-linecap:round; stroke-linejoin:round; stroke-width:2; stroke-opacity:0.1; fill:none" points="202.177,1125.56 2352.76,1125.56 "/>
<polyline clip-path="url(#clip782)" style="stroke:#f8f8f2; stroke-linecap:round; stroke-linejoin:round; stroke-width:2; stroke-opacity:0.1; fill:none" points="202.177,764.681 2352.76,764.681 "/>
<polyline clip-path="url(#clip782)" style="stroke:#f8f8f2; stroke-linecap:round; stroke-linejoin:round; stroke-width:2; stroke-opacity:0.1; fill:none" points="202.177,403.797 2352.76,403.797 "/>
<polyline clip-path="url(#clip780)" style="stroke:#f8f8f2; stroke-linecap:round; stroke-linejoin:round; stroke-width:4; stroke-opacity:1; fill:none" points="202.177,1486.45 202.177,47.2441 "/>
<polyline clip-path="url(#clip780)" style="stroke:#f8f8f2; stroke-linecap:round; stroke-linejoin:round; stroke-width:4; stroke-opacity:1; fill:none" points="202.177,1486.45 221.074,1486.45 "/>
<polyline clip-path="url(#clip780)" style="stroke:#f8f8f2; stroke-linecap:round; stroke-linejoin:round; stroke-width:4; stroke-opacity:1; fill:none" points="202.177,1125.56 221.074,1125.56 "/>
<polyline clip-path="url(#clip780)" style="stroke:#f8f8f2; stroke-linecap:round; stroke-linejoin:round; stroke-width:4; stroke-opacity:1; fill:none" points="202.177,764.681 221.074,764.681 "/>
<polyline clip-path="url(#clip780)" style="stroke:#f8f8f2; stroke-linecap:round; stroke-linejoin:round; stroke-width:4; stroke-opacity:1; fill:none" points="202.177,403.797 221.074,403.797 "/>
<path clip-path="url(#clip780)" d="M154.232 1472.25 Q150.621 1472.25 148.793 1475.81 Q146.987 1479.35 146.987 1486.48 Q146.987 1493.59 148.793 1497.15 Q150.621 1500.7 154.232 1500.7 Q157.867 1500.7 159.672 1497.15 Q161.501 1493.59 161.501 1486.48 Q161.501 1479.35 159.672 1475.81 Q157.867 1472.25 154.232 1472.25 M154.232 1468.54 Q160.042 1468.54 163.098 1473.15 Q166.177 1477.73 166.177 1486.48 Q166.177 1495.21 163.098 1499.82 Q160.042 1504.4 154.232 1504.4 Q148.422 1504.4 145.343 1499.82 Q142.288 1495.21 142.288 1486.48 Q142.288 1477.73 145.343 1473.15 Q148.422 1468.54 154.232 1468.54 Z" fill="#f8f8f2" fill-rule="nonzero" fill-opacity="1" /><path clip-path="url(#clip780)" d="M57.7745 1138.91 L74.0939 1138.91 L74.0939 1142.84 L52.1495 1142.84 L52.1495 1138.91 Q54.8115 1136.15 59.3949 1131.52 Q64.0013 1126.87 65.1819 1125.53 Q67.4272 1123.01 68.3068 1121.27 Q69.2096 1119.51 69.2096 1117.82 Q69.2096 1115.07 67.2652 1113.33 Q65.3439 1111.59 62.2421 1111.59 Q60.043 1111.59 57.5893 1112.36 Q55.1588 1113.12 52.381 1114.67 L52.381 1109.95 Q55.2051 1108.82 57.6588 1108.24 Q60.1124 1107.66 62.1495 1107.66 Q67.5198 1107.66 70.7142 1110.34 Q73.9087 1113.03 73.9087 1117.52 Q73.9087 1119.65 73.0985 1121.57 Q72.3115 1123.47 70.205 1126.06 Q69.6263 1126.73 66.5245 1129.95 Q63.4226 1133.15 57.7745 1138.91 Z" fill="#f8f8f2" fill-rule="nonzero" fill-opacity="1" /><path clip-path="url(#clip780)" d="M93.9086 1111.36 Q90.2975 1111.36 88.4688 1114.93 Q86.6632 1118.47 86.6632 1125.6 Q86.6632 1132.71 88.4688 1136.27 Q90.2975 1139.81 93.9086 1139.81 Q97.5428 1139.81 99.3483 1136.27 Q101.177 1132.71 101.177 1125.6 Q101.177 1118.47 99.3483 1114.93 Q97.5428 1111.36 93.9086 1111.36 M93.9086 1107.66 Q99.7187 1107.66 102.774 1112.27 Q105.853 1116.85 105.853 1125.6 Q105.853 1134.33 102.774 1138.93 Q99.7187 1143.52 93.9086 1143.52 Q88.0984 1143.52 85.0197 1138.93 Q81.9642 1134.33 81.9642 1125.6 Q81.9642 1116.85 85.0197 1112.27 Q88.0984 1107.66 93.9086 1107.66 Z" fill="#f8f8f2" fill-rule="nonzero" fill-opacity="1" /><path clip-path="url(#clip780)" d="M124.07 1111.36 Q120.459 1111.36 118.631 1114.93 Q116.825 1118.47 116.825 1125.6 Q116.825 1132.71 118.631 1136.27 Q120.459 1139.81 124.07 1139.81 Q127.705 1139.81 129.51 1136.27 Q131.339 1132.71 131.339 1125.6 Q131.339 1118.47 129.51 1114.93 Q127.705 1111.36 124.07 1111.36 M124.07 1107.66 Q129.881 1107.66 132.936 1112.27 Q136.015 1116.85 136.015 1125.6 Q136.015 1134.33 132.936 1138.93 Q129.881 1143.52 124.07 1143.52 Q118.26 1143.52 115.182 1138.93 Q112.126 1134.33 112.126 1125.6 Q112.126 1116.85 115.182 1112.27 Q118.26 1107.66 124.07 1107.66 Z" fill="#f8f8f2" fill-rule="nonzero" fill-opacity="1" /><path clip-path="url(#clip780)" d="M154.232 1111.36 Q150.621 1111.36 148.793 1114.93 Q146.987 1118.47 146.987 1125.6 Q146.987 1132.71 148.793 1136.27 Q150.621 1139.81 154.232 1139.81 Q157.867 1139.81 159.672 1136.27 Q161.501 1132.71 161.501 1125.6 Q161.501 1118.47 159.672 1114.93 Q157.867 1111.36 154.232 1111.36 M154.232 1107.66 Q160.042 1107.66 163.098 1112.27 Q166.177 1116.85 166.177 1125.6 Q166.177 1134.33 163.098 1138.93 Q160.042 1143.52 154.232 1143.52 Q148.422 1143.52 145.343 1138.93 Q142.288 1134.33 142.288 1125.6 Q142.288 1116.85 145.343 1112.27 Q148.422 1107.66 154.232 1107.66 Z" fill="#f8f8f2" fill-rule="nonzero" fill-opacity="1" /><path clip-path="url(#clip780)" d="M66.5939 751.475 L54.7884 769.924 L66.5939 769.924 L66.5939 751.475 M65.367 747.401 L71.2466 747.401 L71.2466 769.924 L76.1772 769.924 L76.1772 773.813 L71.2466 773.813 L71.2466 781.961 L66.5939 781.961 L66.5939 773.813 L50.9921 773.813 L50.9921 769.299 L65.367 747.401 Z" fill="#f8f8f2" fill-rule="nonzero" fill-opacity="1" /><path clip-path="url(#clip780)" d="M93.9086 750.479 Q90.2975 750.479 88.4688 754.044 Q86.6632 757.586 86.6632 764.715 Q86.6632 771.822 88.4688 775.387 Q90.2975 778.928 93.9086 778.928 Q97.5428 778.928 99.3483 775.387 Q101.177 771.822 101.177 764.715 Q101.177 757.586 99.3483 754.044 Q97.5428 750.479 93.9086 750.479 M93.9086 746.776 Q99.7187 746.776 102.774 751.382 Q105.853 755.965 105.853 764.715 Q105.853 773.442 102.774 778.049 Q99.7187 782.632 93.9086 782.632 Q88.0984 782.632 85.0197 778.049 Q81.9642 773.442 81.9642 764.715 Q81.9642 755.965 85.0197 751.382 Q88.0984 746.776 93.9086 746.776 Z" fill="#f8f8f2" fill-rule="nonzero" fill-opacity="1" /><path clip-path="url(#clip780)" d="M124.07 750.479 Q120.459 750.479 118.631 754.044 Q116.825 757.586 116.825 764.715 Q116.825 771.822 118.631 775.387 Q120.459 778.928 124.07 778.928 Q127.705 778.928 129.51 775.387 Q131.339 771.822 131.339 764.715 Q131.339 757.586 129.51 754.044 Q127.705 750.479 124.07 750.479 M124.07 746.776 Q129.881 746.776 132.936 751.382 Q136.015 755.965 136.015 764.715 Q136.015 773.442 132.936 778.049 Q129.881 782.632 124.07 782.632 Q118.26 782.632 115.182 778.049 Q112.126 773.442 112.126 764.715 Q112.126 755.965 115.182 751.382 Q118.26 746.776 124.07 746.776 Z" fill="#f8f8f2" fill-rule="nonzero" fill-opacity="1" /><path clip-path="url(#clip780)" d="M154.232 750.479 Q150.621 750.479 148.793 754.044 Q146.987 757.586 146.987 764.715 Q146.987 771.822 148.793 775.387 Q150.621 778.928 154.232 778.928 Q157.867 778.928 159.672 775.387 Q161.501 771.822 161.501 764.715 Q161.501 757.586 159.672 754.044 Q157.867 750.479 154.232 750.479 M154.232 746.776 Q160.042 746.776 163.098 751.382 Q166.177 755.965 166.177 764.715 Q166.177 773.442 163.098 778.049 Q160.042 782.632 154.232 782.632 Q148.422 782.632 145.343 778.049 Q142.288 773.442 142.288 764.715 Q142.288 755.965 145.343 751.382 Q148.422 746.776 154.232 746.776 Z" fill="#f8f8f2" fill-rule="nonzero" fill-opacity="1" /><path clip-path="url(#clip780)" d="M64.3254 401.934 Q61.1773 401.934 59.3254 404.086 Q57.4967 406.239 57.4967 409.989 Q57.4967 413.716 59.3254 415.892 Q61.1773 418.045 64.3254 418.045 Q67.4735 418.045 69.3022 415.892 Q71.1541 413.716 71.1541 409.989 Q71.1541 406.239 69.3022 404.086 Q67.4735 401.934 64.3254 401.934 M73.6077 387.281 L73.6077 391.54 Q71.8485 390.707 70.0429 390.267 Q68.2606 389.827 66.5013 389.827 Q61.8717 389.827 59.418 392.952 Q56.9875 396.077 56.6402 402.397 Q58.006 400.383 60.0662 399.318 Q62.1263 398.23 64.6032 398.23 Q69.8115 398.23 72.8207 401.401 Q75.8531 404.549 75.8531 409.989 Q75.8531 415.313 72.705 418.531 Q69.5568 421.748 64.3254 421.748 Q58.33 421.748 55.1588 417.165 Q51.9875 412.559 51.9875 403.832 Q51.9875 395.637 55.8764 390.776 Q59.7652 385.892 66.3161 385.892 Q68.0754 385.892 69.8578 386.239 Q71.6633 386.587 73.6077 387.281 Z" fill="#f8f8f2" fill-rule="nonzero" fill-opacity="1" /><path clip-path="url(#clip780)" d="M93.9086 389.596 Q90.2975 389.596 88.4688 393.161 Q86.6632 396.702 86.6632 403.832 Q86.6632 410.938 88.4688 414.503 Q90.2975 418.045 93.9086 418.045 Q97.5428 418.045 99.3483 414.503 Q101.177 410.938 101.177 403.832 Q101.177 396.702 99.3483 393.161 Q97.5428 389.596 93.9086 389.596 M93.9086 385.892 Q99.7187 385.892 102.774 390.499 Q105.853 395.082 105.853 403.832 Q105.853 412.559 102.774 417.165 Q99.7187 421.748 93.9086 421.748 Q88.0984 421.748 85.0197 417.165 Q81.9642 412.559 81.9642 403.832 Q81.9642 395.082 85.0197 390.499 Q88.0984 385.892 93.9086 385.892 Z" fill="#f8f8f2" fill-rule="nonzero" fill-opacity="1" /><path clip-path="url(#clip780)" d="M124.07 389.596 Q120.459 389.596 118.631 393.161 Q116.825 396.702 116.825 403.832 Q116.825 410.938 118.631 414.503 Q120.459 418.045 124.07 418.045 Q127.705 418.045 129.51 414.503 Q131.339 410.938 131.339 403.832 Q131.339 396.702 129.51 393.161 Q127.705 389.596 124.07 389.596 M124.07 385.892 Q129.881 385.892 132.936 390.499 Q136.015 395.082 136.015 403.832 Q136.015 412.559 132.936 417.165 Q129.881 421.748 124.07 421.748 Q118.26 421.748 115.182 417.165 Q112.126 412.559 112.126 403.832 Q112.126 395.082 115.182 390.499 Q118.26 385.892 124.07 385.892 Z" fill="#f8f8f2" fill-rule="nonzero" fill-opacity="1" /><path clip-path="url(#clip780)" d="M154.232 389.596 Q150.621 389.596 148.793 393.161 Q146.987 396.702 146.987 403.832 Q146.987 410.938 148.793 414.503 Q150.621 418.045 154.232 418.045 Q157.867 418.045 159.672 414.503 Q161.501 410.938 161.501 403.832 Q161.501 396.702 159.672 393.161 Q157.867 389.596 154.232 389.596 M154.232 385.892 Q160.042 385.892 163.098 390.499 Q166.177 395.082 166.177 403.832 Q166.177 412.559 163.098 417.165 Q160.042 421.748 154.232 421.748 Q148.422 421.748 145.343 417.165 Q142.288 412.559 142.288 403.832 Q142.288 395.082 145.343 390.499 Q148.422 385.892 154.232 385.892 Z" fill="#f8f8f2" fill-rule="nonzero" fill-opacity="1" /><path clip-path="url(#clip782)" d="M320.462 1486.27 L320.462 1486.45 L361.186 1486.45 L361.186 1486.27 L320.462 1486.27 L320.462 1486.27  Z" fill="#8be9fd" fill-rule="evenodd" fill-opacity="1"/>
<polyline clip-path="url(#clip782)" style="stroke:#f8f8f2; stroke-linecap:round; stroke-linejoin:round; stroke-width:4; stroke-opacity:1; fill:none" points="320.462,1486.27 320.462,1486.45 361.186,1486.45 361.186,1486.27 320.462,1486.27 "/>
<path clip-path="url(#clip782)" d="M361.186 1486.27 L361.186 1486.45 L401.91 1486.45 L401.91 1486.27 L361.186 1486.27 L361.186 1486.27  Z" fill="#8be9fd" fill-rule="evenodd" fill-opacity="1"/>
<polyline clip-path="url(#clip782)" style="stroke:#f8f8f2; stroke-linecap:round; stroke-linejoin:round; stroke-width:4; stroke-opacity:1; fill:none" points="361.186,1486.27 361.186,1486.45 401.91,1486.45 401.91,1486.27 361.186,1486.27 "/>
<path clip-path="url(#clip782)" d="M401.91 1486.45 L401.91 1486.45 L442.633 1486.45 L442.633 1486.45 L401.91 1486.45 L401.91 1486.45  Z" fill="#8be9fd" fill-rule="evenodd" fill-opacity="1"/>
<polyline clip-path="url(#clip782)" style="stroke:#f8f8f2; stroke-linecap:round; stroke-linejoin:round; stroke-width:4; stroke-opacity:1; fill:none" points="401.91,1486.45 401.91,1486.45 442.633,1486.45 401.91,1486.45 "/>
<path clip-path="url(#clip782)" d="M442.633 1485.73 L442.633 1486.45 L483.357 1486.45 L483.357 1485.73 L442.633 1485.73 L442.633 1485.73  Z" fill="#8be9fd" fill-rule="evenodd" fill-opacity="1"/>
<polyline clip-path="url(#clip782)" style="stroke:#f8f8f2; stroke-linecap:round; stroke-linejoin:round; stroke-width:4; stroke-opacity:1; fill:none" points="442.633,1485.73 442.633,1486.45 483.357,1486.45 483.357,1485.73 442.633,1485.73 "/>
<path clip-path="url(#clip782)" d="M483.357 1485.55 L483.357 1486.45 L524.08 1486.45 L524.08 1485.55 L483.357 1485.55 L483.357 1485.55  Z" fill="#8be9fd" fill-rule="evenodd" fill-opacity="1"/>
<polyline clip-path="url(#clip782)" style="stroke:#f8f8f2; stroke-linecap:round; stroke-linejoin:round; stroke-width:4; stroke-opacity:1; fill:none" points="483.357,1485.55 483.357,1486.45 524.08,1486.45 524.08,1485.55 483.357,1485.55 "/>
<path clip-path="url(#clip782)" d="M524.08 1483.74 L524.08 1486.45 L564.804 1486.45 L564.804 1483.74 L524.08 1483.74 L524.08 1483.74  Z" fill="#8be9fd" fill-rule="evenodd" fill-opacity="1"/>
<polyline clip-path="url(#clip782)" style="stroke:#f8f8f2; stroke-linecap:round; stroke-linejoin:round; stroke-width:4; stroke-opacity:1; fill:none" points="524.08,1483.74 524.08,1486.45 564.804,1486.45 564.804,1483.74 524.08,1483.74 "/>
<path clip-path="url(#clip782)" d="M564.804 1479.41 L564.804 1486.45 L605.527 1486.45 L605.527 1479.41 L564.804 1479.41 L564.804 1479.41  Z" fill="#8be9fd" fill-rule="evenodd" fill-opacity="1"/>
<polyline clip-path="url(#clip782)" style="stroke:#f8f8f2; stroke-linecap:round; stroke-linejoin:round; stroke-width:4; stroke-opacity:1; fill:none" points="564.804,1479.41 564.804,1486.45 605.527,1486.45 605.527,1479.41 564.804,1479.41 "/>
<path clip-path="url(#clip782)" d="M605.527 1475.08 L605.527 1486.45 L646.251 1486.45 L646.251 1475.08 L605.527 1475.08 L605.527 1475.08  Z" fill="#8be9fd" fill-rule="evenodd" fill-opacity="1"/>
<polyline clip-path="url(#clip782)" style="stroke:#f8f8f2; stroke-linecap:round; stroke-linejoin:round; stroke-width:4; stroke-opacity:1; fill:none" points="605.527,1475.08 605.527,1486.45 646.251,1486.45 646.251,1475.08 605.527,1475.08 "/>
<path clip-path="url(#clip782)" d="M646.251 1464.98 L646.251 1486.45 L686.975 1486.45 L686.975 1464.98 L646.251 1464.98 L646.251 1464.98  Z" fill="#8be9fd" fill-rule="evenodd" fill-opacity="1"/>
<polyline clip-path="url(#clip782)" style="stroke:#f8f8f2; stroke-linecap:round; stroke-linejoin:round; stroke-width:4; stroke-opacity:1; fill:none" points="646.251,1464.98 646.251,1486.45 686.975,1486.45 686.975,1464.98 646.251,1464.98 "/>
<path clip-path="url(#clip782)" d="M686.975 1449.28 L686.975 1486.45 L727.698 1486.45 L727.698 1449.28 L686.975 1449.28 L686.975 1449.28  Z" fill="#8be9fd" fill-rule="evenodd" fill-opacity="1"/>
<polyline clip-path="url(#clip782)" style="stroke:#f8f8f2; stroke-linecap:round; stroke-linejoin:round; stroke-width:4; stroke-opacity:1; fill:none" points="686.975,1449.28 686.975,1486.45 727.698,1486.45 727.698,1449.28 686.975,1449.28 "/>
<path clip-path="url(#clip782)" d="M727.698 1426.18 L727.698 1486.45 L768.422 1486.45 L768.422 1426.18 L727.698 1426.18 L727.698 1426.18  Z" fill="#8be9fd" fill-rule="evenodd" fill-opacity="1"/>
<polyline clip-path="url(#clip782)" style="stroke:#f8f8f2; stroke-linecap:round; stroke-linejoin:round; stroke-width:4; stroke-opacity:1; fill:none" points="727.698,1426.18 727.698,1486.45 768.422,1486.45 768.422,1426.18 727.698,1426.18 "/>
<path clip-path="url(#clip782)" d="M768.422 1387.75 L768.422 1486.45 L809.145 1486.45 L809.145 1387.75 L768.422 1387.75 L768.422 1387.75  Z" fill="#8be9fd" fill-rule="evenodd" fill-opacity="1"/>
<polyline clip-path="url(#clip782)" style="stroke:#f8f8f2; stroke-linecap:round; stroke-linejoin:round; stroke-width:4; stroke-opacity:1; fill:none" points="768.422,1387.75 768.422,1486.45 809.145,1486.45 809.145,1387.75 768.422,1387.75 "/>
<path clip-path="url(#clip782)" d="M809.145 1334.34 L809.145 1486.45 L849.869 1486.45 L849.869 1334.34 L809.145 1334.34 L809.145 1334.34  Z" fill="#8be9fd" fill-rule="evenodd" fill-opacity="1"/>
<polyline clip-path="url(#clip782)" style="stroke:#f8f8f2; stroke-linecap:round; stroke-linejoin:round; stroke-width:4; stroke-opacity:1; fill:none" points="809.145,1334.34 809.145,1486.45 849.869,1486.45 849.869,1334.34 809.145,1334.34 "/>
<path clip-path="url(#clip782)" d="M849.869 1258.19 L849.869 1486.45 L890.592 1486.45 L890.592 1258.19 L849.869 1258.19 L849.869 1258.19  Z" fill="#8be9fd" fill-rule="evenodd" fill-opacity="1"/>
<polyline clip-path="url(#clip782)" style="stroke:#f8f8f2; stroke-linecap:round; stroke-linejoin:round; stroke-width:4; stroke-opacity:1; fill:none" points="849.869,1258.19 849.869,1486.45 890.592,1486.45 890.592,1258.19 849.869,1258.19 "/>
<path clip-path="url(#clip782)" d="M890.592 1135.13 L890.592 1486.45 L931.316 1486.45 L931.316 1135.13 L890.592 1135.13 L890.592 1135.13  Z" fill="#8be9fd" fill-rule="evenodd" fill-opacity="1"/>
<polyline clip-path="url(#clip782)" style="stroke:#f8f8f2; stroke-linecap:round; stroke-linejoin:round; stroke-width:4; stroke-opacity:1; fill:none" points="890.592,1135.13 890.592,1486.45 931.316,1486.45 931.316,1135.13 890.592,1135.13 "/>
<path clip-path="url(#clip782)" d="M931.316 1009.18 L931.316 1486.45 L972.04 1486.45 L972.04 1009.18 L931.316 1009.18 L931.316 1009.18  Z" fill="#8be9fd" fill-rule="evenodd" fill-opacity="1"/>
<polyline clip-path="url(#clip782)" style="stroke:#f8f8f2; stroke-linecap:round; stroke-linejoin:round; stroke-width:4; stroke-opacity:1; fill:none" points="931.316,1009.18 931.316,1486.45 972.04,1486.45 972.04,1009.18 931.316,1009.18 "/>
<path clip-path="url(#clip782)" d="M972.04 860.495 L972.04 1486.45 L1012.76 1486.45 L1012.76 860.495 L972.04 860.495 L972.04 860.495  Z" fill="#8be9fd" fill-rule="evenodd" fill-opacity="1"/>
<polyline clip-path="url(#clip782)" style="stroke:#f8f8f2; stroke-linecap:round; stroke-linejoin:round; stroke-width:4; stroke-opacity:1; fill:none" points="972.04,860.495 972.04,1486.45 1012.76,1486.45 1012.76,860.495 972.04,860.495 "/>
<path clip-path="url(#clip782)" d="M1012.76 690.339 L1012.76 1486.45 L1053.49 1486.45 L1053.49 690.339 L1012.76 690.339 L1012.76 690.339  Z" fill="#8be9fd" fill-rule="evenodd" fill-opacity="1"/>
<polyline clip-path="url(#clip782)" style="stroke:#f8f8f2; stroke-linecap:round; stroke-linejoin:round; stroke-width:4; stroke-opacity:1; fill:none" points="1012.76,690.339 1012.76,1486.45 1053.49,1486.45 1053.49,690.339 1012.76,690.339 "/>
<path clip-path="url(#clip782)" d="M1053.49 540.031 L1053.49 1486.45 L1094.21 1486.45 L1094.21 540.031 L1053.49 540.031 L1053.49 540.031  Z" fill="#8be9fd" fill-rule="evenodd" fill-opacity="1"/>
<polyline clip-path="url(#clip782)" style="stroke:#f8f8f2; stroke-linecap:round; stroke-linejoin:round; stroke-width:4; stroke-opacity:1; fill:none" points="1053.49,540.031 1053.49,1486.45 1094.21,1486.45 1094.21,540.031 1053.49,540.031 "/>
<path clip-path="url(#clip782)" d="M1094.21 371.498 L1094.21 1486.45 L1134.93 1486.45 L1134.93 371.498 L1094.21 371.498 L1094.21 371.498  Z" fill="#8be9fd" fill-rule="evenodd" fill-opacity="1"/>
<polyline clip-path="url(#clip782)" style="stroke:#f8f8f2; stroke-linecap:round; stroke-linejoin:round; stroke-width:4; stroke-opacity:1; fill:none" points="1094.21,371.498 1094.21,1486.45 1134.93,1486.45 1134.93,371.498 1094.21,371.498 "/>
<path clip-path="url(#clip782)" d="M1134.93 193.222 L1134.93 1486.45 L1175.66 1486.45 L1175.66 193.222 L1134.93 193.222 L1134.93 193.222  Z" fill="#8be9fd" fill-rule="evenodd" fill-opacity="1"/>
<polyline clip-path="url(#clip782)" style="stroke:#f8f8f2; stroke-linecap:round; stroke-linejoin:round; stroke-width:4; stroke-opacity:1; fill:none" points="1134.93,193.222 1134.93,1486.45 1175.66,1486.45 1175.66,193.222 1134.93,193.222 "/>
<path clip-path="url(#clip782)" d="M1175.66 115.451 L1175.66 1486.45 L1216.38 1486.45 L1216.38 115.451 L1175.66 115.451 L1175.66 115.451  Z" fill="#8be9fd" fill-rule="evenodd" fill-opacity="1"/>
<polyline clip-path="url(#clip782)" style="stroke:#f8f8f2; stroke-linecap:round; stroke-linejoin:round; stroke-width:4; stroke-opacity:1; fill:none" points="1175.66,115.451 1175.66,1486.45 1216.38,1486.45 1216.38,115.451 1175.66,115.451 "/>
<path clip-path="url(#clip782)" d="M1216.38 47.2441 L1216.38 1486.45 L1257.1 1486.45 L1257.1 47.2441 L1216.38 47.2441 L1216.38 47.2441  Z" fill="#8be9fd" fill-rule="evenodd" fill-opacity="1"/>
<polyline clip-path="url(#clip782)" style="stroke:#f8f8f2; stroke-linecap:round; stroke-linejoin:round; stroke-width:4; stroke-opacity:1; fill:none" points="1216.38,47.2441 1216.38,1486.45 1257.1,1486.45 1257.1,47.2441 1216.38,47.2441 "/>
<path clip-path="url(#clip782)" d="M1257.1 56.4466 L1257.1 1486.45 L1297.83 1486.45 L1297.83 56.4466 L1257.1 56.4466 L1257.1 56.4466  Z" fill="#8be9fd" fill-rule="evenodd" fill-opacity="1"/>
<polyline clip-path="url(#clip782)" style="stroke:#f8f8f2; stroke-linecap:round; stroke-linejoin:round; stroke-width:4; stroke-opacity:1; fill:none" points="1257.1,56.4466 1257.1,1486.45 1297.83,1486.45 1297.83,56.4466 1257.1,56.4466 "/>
<path clip-path="url(#clip782)" d="M1297.83 127.541 L1297.83 1486.45 L1338.55 1486.45 L1338.55 127.541 L1297.83 127.541 L1297.83 127.541  Z" fill="#8be9fd" fill-rule="evenodd" fill-opacity="1"/>
<polyline clip-path="url(#clip782)" style="stroke:#f8f8f2; stroke-linecap:round; stroke-linejoin:round; stroke-width:4; stroke-opacity:1; fill:none" points="1297.83,127.541 1297.83,1486.45 1338.55,1486.45 1338.55,127.541 1297.83,127.541 "/>
<path clip-path="url(#clip782)" d="M1338.55 212.168 L1338.55 1486.45 L1379.28 1486.45 L1379.28 212.168 L1338.55 212.168 L1338.55 212.168  Z" fill="#8be9fd" fill-rule="evenodd" fill-opacity="1"/>
<polyline clip-path="url(#clip782)" style="stroke:#f8f8f2; stroke-linecap:round; stroke-linejoin:round; stroke-width:4; stroke-opacity:1; fill:none" points="1338.55,212.168 1338.55,1486.45 1379.28,1486.45 1379.28,212.168 1338.55,212.168 "/>
<path clip-path="url(#clip782)" d="M1379.28 366.626 L1379.28 1486.45 L1420 1486.45 L1420 366.626 L1379.28 366.626 L1379.28 366.626  Z" fill="#8be9fd" fill-rule="evenodd" fill-opacity="1"/>
<polyline clip-path="url(#clip782)" style="stroke:#f8f8f2; stroke-linecap:round; stroke-linejoin:round; stroke-width:4; stroke-opacity:1; fill:none" points="1379.28,366.626 1379.28,1486.45 1420,1486.45 1420,366.626 1379.28,366.626 "/>
<path clip-path="url(#clip782)" d="M1420 537.144 L1420 1486.45 L1460.72 1486.45 L1460.72 537.144 L1420 537.144 L1420 537.144  Z" fill="#8be9fd" fill-rule="evenodd" fill-opacity="1"/>
<polyline clip-path="url(#clip782)" style="stroke:#f8f8f2; stroke-linecap:round; stroke-linejoin:round; stroke-width:4; stroke-opacity:1; fill:none" points="1420,537.144 1420,1486.45 1460.72,1486.45 1460.72,537.144 1420,537.144 "/>
<path clip-path="url(#clip782)" d="M1460.72 702.789 L1460.72 1486.45 L1501.45 1486.45 L1501.45 702.789 L1460.72 702.789 L1460.72 702.789  Z" fill="#8be9fd" fill-rule="evenodd" fill-opacity="1"/>
<polyline clip-path="url(#clip782)" style="stroke:#f8f8f2; stroke-linecap:round; stroke-linejoin:round; stroke-width:4; stroke-opacity:1; fill:none" points="1460.72,702.789 1460.72,1486.45 1501.45,1486.45 1501.45,702.789 1460.72,702.789 "/>
<path clip-path="url(#clip782)" d="M1501.45 848.225 L1501.45 1486.45 L1542.17 1486.45 L1542.17 848.225 L1501.45 848.225 L1501.45 848.225  Z" fill="#8be9fd" fill-rule="evenodd" fill-opacity="1"/>
<polyline clip-path="url(#clip782)" style="stroke:#f8f8f2; stroke-linecap:round; stroke-linejoin:round; stroke-width:4; stroke-opacity:1; fill:none" points="1501.45,848.225 1501.45,1486.45 1542.17,1486.45 1542.17,848.225 1501.45,848.225 "/>
<path clip-path="url(#clip782)" d="M1542.17 1016.22 L1542.17 1486.45 L1582.89 1486.45 L1582.89 1016.22 L1542.17 1016.22 L1542.17 1016.22  Z" fill="#8be9fd" fill-rule="evenodd" fill-opacity="1"/>
<polyline clip-path="url(#clip782)" style="stroke:#f8f8f2; stroke-linecap:round; stroke-linejoin:round; stroke-width:4; stroke-opacity:1; fill:none" points="1542.17,1016.22 1542.17,1486.45 1582.89,1486.45 1582.89,1016.22 1542.17,1016.22 "/>
<path clip-path="url(#clip782)" d="M1582.89 1146.5 L1582.89 1486.45 L1623.62 1486.45 L1623.62 1146.5 L1582.89 1146.5 L1582.89 1146.5  Z" fill="#8be9fd" fill-rule="evenodd" fill-opacity="1"/>
<polyline clip-path="url(#clip782)" style="stroke:#f8f8f2; stroke-linecap:round; stroke-linejoin:round; stroke-width:4; stroke-opacity:1; fill:none" points="1582.89,1146.5 1582.89,1486.45 1623.62,1486.45 1623.62,1146.5 1582.89,1146.5 "/>
<path clip-path="url(#clip782)" d="M1623.62 1254.94 L1623.62 1486.45 L1664.34 1486.45 L1664.34 1254.94 L1623.62 1254.94 L1623.62 1254.94  Z" fill="#8be9fd" fill-rule="evenodd" fill-opacity="1"/>
<polyline clip-path="url(#clip782)" style="stroke:#f8f8f2; stroke-linecap:round; stroke-linejoin:round; stroke-width:4; stroke-opacity:1; fill:none" points="1623.62,1254.94 1623.62,1486.45 1664.34,1486.45 1664.34,1254.94 1623.62,1254.94 "/>
<path clip-path="url(#clip782)" d="M1664.34 1324.95 L1664.34 1486.45 L1705.06 1486.45 L1705.06 1324.95 L1664.34 1324.95 L1664.34 1324.95  Z" fill="#8be9fd" fill-rule="evenodd" fill-opacity="1"/>
<polyline clip-path="url(#clip782)" style="stroke:#f8f8f2; stroke-linecap:round; stroke-linejoin:round; stroke-width:4; stroke-opacity:1; fill:none" points="1664.34,1324.95 1664.34,1486.45 1705.06,1486.45 1705.06,1324.95 1664.34,1324.95 "/>
<path clip-path="url(#clip782)" d="M1705.06 1388.29 L1705.06 1486.45 L1745.79 1486.45 L1745.79 1388.29 L1705.06 1388.29 L1705.06 1388.29  Z" fill="#8be9fd" fill-rule="evenodd" fill-opacity="1"/>
<polyline clip-path="url(#clip782)" style="stroke:#f8f8f2; stroke-linecap:round; stroke-linejoin:round; stroke-width:4; stroke-opacity:1; fill:none" points="1705.06,1388.29 1705.06,1486.45 1745.79,1486.45 1745.79,1388.29 1705.06,1388.29 "/>
<path clip-path="url(#clip782)" d="M1745.79 1425.1 L1745.79 1486.45 L1786.51 1486.45 L1786.51 1425.1 L1745.79 1425.1 L1745.79 1425.1  Z" fill="#8be9fd" fill-rule="evenodd" fill-opacity="1"/>
<polyline clip-path="url(#clip782)" style="stroke:#f8f8f2; stroke-linecap:round; stroke-linejoin:round; stroke-width:4; stroke-opacity:1; fill:none" points="1745.79,1425.1 1745.79,1486.45 1786.51,1486.45 1786.51,1425.1 1745.79,1425.1 "/>
<path clip-path="url(#clip782)" d="M1786.51 1445.67 L1786.51 1486.45 L1827.23 1486.45 L1827.23 1445.67 L1786.51 1445.67 L1786.51 1445.67  Z" fill="#8be9fd" fill-rule="evenodd" fill-opacity="1"/>
<polyline clip-path="url(#clip782)" style="stroke:#f8f8f2; stroke-linecap:round; stroke-linejoin:round; stroke-width:4; stroke-opacity:1; fill:none" points="1786.51,1445.67 1786.51,1486.45 1827.23,1486.45 1827.23,1445.67 1786.51,1445.67 "/>
<path clip-path="url(#clip782)" d="M1827.23 1459.02 L1827.23 1486.45 L1867.96 1486.45 L1867.96 1459.02 L1827.23 1459.02 L1827.23 1459.02  Z" fill="#8be9fd" fill-rule="evenodd" fill-opacity="1"/>
<polyline clip-path="url(#clip782)" style="stroke:#f8f8f2; stroke-linecap:round; stroke-linejoin:round; stroke-width:4; stroke-opacity:1; fill:none" points="1827.23,1459.02 1827.23,1486.45 1867.96,1486.45 1867.96,1459.02 1827.23,1459.02 "/>
<path clip-path="url(#clip782)" d="M1867.96 1477.43 L1867.96 1486.45 L1908.68 1486.45 L1908.68 1477.43 L1867.96 1477.43 L1867.96 1477.43  Z" fill="#8be9fd" fill-rule="evenodd" fill-opacity="1"/>
<polyline clip-path="url(#clip782)" style="stroke:#f8f8f2; stroke-linecap:round; stroke-linejoin:round; stroke-width:4; stroke-opacity:1; fill:none" points="1867.96,1477.43 1867.96,1486.45 1908.68,1486.45 1908.68,1477.43 1867.96,1477.43 "/>
<path clip-path="url(#clip782)" d="M1908.68 1479.05 L1908.68 1486.45 L1949.41 1486.45 L1949.41 1479.05 L1908.68 1479.05 L1908.68 1479.05  Z" fill="#8be9fd" fill-rule="evenodd" fill-opacity="1"/>
<polyline clip-path="url(#clip782)" style="stroke:#f8f8f2; stroke-linecap:round; stroke-linejoin:round; stroke-width:4; stroke-opacity:1; fill:none" points="1908.68,1479.05 1908.68,1486.45 1949.41,1486.45 1949.41,1479.05 1908.68,1479.05 "/>
<path clip-path="url(#clip782)" d="M1949.41 1483.92 L1949.41 1486.45 L1990.13 1486.45 L1990.13 1483.92 L1949.41 1483.92 L1949.41 1483.92  Z" fill="#8be9fd" fill-rule="evenodd" fill-opacity="1"/>
<polyline clip-path="url(#clip782)" style="stroke:#f8f8f2; stroke-linecap:round; stroke-linejoin:round; stroke-width:4; stroke-opacity:1; fill:none" points="1949.41,1483.92 1949.41,1486.45 1990.13,1486.45 1990.13,1483.92 1949.41,1483.92 "/>
<path clip-path="url(#clip782)" d="M1990.13 1484.82 L1990.13 1486.45 L2030.85 1486.45 L2030.85 1484.82 L1990.13 1484.82 L1990.13 1484.82  Z" fill="#8be9fd" fill-rule="evenodd" fill-opacity="1"/>
<polyline clip-path="url(#clip782)" style="stroke:#f8f8f2; stroke-linecap:round; stroke-linejoin:round; stroke-width:4; stroke-opacity:1; fill:none" points="1990.13,1484.82 1990.13,1486.45 2030.85,1486.45 2030.85,1484.82 1990.13,1484.82 "/>
<path clip-path="url(#clip782)" d="M2030.85 1485.55 L2030.85 1486.45 L2071.58 1486.45 L2071.58 1485.55 L2030.85 1485.55 L2030.85 1485.55  Z" fill="#8be9fd" fill-rule="evenodd" fill-opacity="1"/>
<polyline clip-path="url(#clip782)" style="stroke:#f8f8f2; stroke-linecap:round; stroke-linejoin:round; stroke-width:4; stroke-opacity:1; fill:none" points="2030.85,1485.55 2030.85,1486.45 2071.58,1486.45 2071.58,1485.55 2030.85,1485.55 "/>
<path clip-path="url(#clip782)" d="M2071.58 1485.91 L2071.58 1486.45 L2112.3 1486.45 L2112.3 1485.91 L2071.58 1485.91 L2071.58 1485.91  Z" fill="#8be9fd" fill-rule="evenodd" fill-opacity="1"/>
<polyline clip-path="url(#clip782)" style="stroke:#f8f8f2; stroke-linecap:round; stroke-linejoin:round; stroke-width:4; stroke-opacity:1; fill:none" points="2071.58,1485.91 2071.58,1486.45 2112.3,1486.45 2112.3,1485.91 2071.58,1485.91 "/>
<path clip-path="url(#clip782)" d="M2112.3 1486.09 L2112.3 1486.45 L2153.02 1486.45 L2153.02 1486.09 L2112.3 1486.09 L2112.3 1486.09  Z" fill="#8be9fd" fill-rule="evenodd" fill-opacity="1"/>
<polyline clip-path="url(#clip782)" style="stroke:#f8f8f2; stroke-linecap:round; stroke-linejoin:round; stroke-width:4; stroke-opacity:1; fill:none" points="2112.3,1486.09 2112.3,1486.45 2153.02,1486.45 2153.02,1486.09 2112.3,1486.09 "/>
<path clip-path="url(#clip782)" d="M2153.02 1486.45 L2153.02 1486.45 L2193.75 1486.45 L2193.75 1486.45 L2153.02 1486.45 L2153.02 1486.45  Z" fill="#8be9fd" fill-rule="evenodd" fill-opacity="1"/>
<polyline clip-path="url(#clip782)" style="stroke:#f8f8f2; stroke-linecap:round; stroke-linejoin:round; stroke-width:4; stroke-opacity:1; fill:none" points="2153.02,1486.45 2153.02,1486.45 2193.75,1486.45 2153.02,1486.45 "/>
<path clip-path="url(#clip782)" d="M2193.75 1486.27 L2193.75 1486.45 L2234.47 1486.45 L2234.47 1486.27 L2193.75 1486.27 L2193.75 1486.27  Z" fill="#8be9fd" fill-rule="evenodd" fill-opacity="1"/>
<polyline clip-path="url(#clip782)" style="stroke:#f8f8f2; stroke-linecap:round; stroke-linejoin:round; stroke-width:4; stroke-opacity:1; fill:none" points="2193.75,1486.27 2193.75,1486.45 2234.47,1486.45 2234.47,1486.27 2193.75,1486.27 "/>
<circle clip-path="url(#clip782)" style="fill:#8be9fd; stroke:none; fill-opacity:0" cx="340.824" cy="1486.27" r="2"/>
<circle clip-path="url(#clip782)" style="fill:#8be9fd; stroke:none; fill-opacity:0" cx="381.548" cy="1486.27" r="2"/>
<circle clip-path="url(#clip782)" style="fill:#8be9fd; stroke:none; fill-opacity:0" cx="422.271" cy="1486.45" r="2"/>
<circle clip-path="url(#clip782)" style="fill:#8be9fd; stroke:none; fill-opacity:0" cx="462.995" cy="1485.73" r="2"/>
<circle clip-path="url(#clip782)" style="fill:#8be9fd; stroke:none; fill-opacity:0" cx="503.718" cy="1485.55" r="2"/>
<circle clip-path="url(#clip782)" style="fill:#8be9fd; stroke:none; fill-opacity:0" cx="544.442" cy="1483.74" r="2"/>
<circle clip-path="url(#clip782)" style="fill:#8be9fd; stroke:none; fill-opacity:0" cx="585.166" cy="1479.41" r="2"/>
<circle clip-path="url(#clip782)" style="fill:#8be9fd; stroke:none; fill-opacity:0" cx="625.889" cy="1475.08" r="2"/>
<circle clip-path="url(#clip782)" style="fill:#8be9fd; stroke:none; fill-opacity:0" cx="666.613" cy="1464.98" r="2"/>
<circle clip-path="url(#clip782)" style="fill:#8be9fd; stroke:none; fill-opacity:0" cx="707.336" cy="1449.28" r="2"/>
<circle clip-path="url(#clip782)" style="fill:#8be9fd; stroke:none; fill-opacity:0" cx="748.06" cy="1426.18" r="2"/>
<circle clip-path="url(#clip782)" style="fill:#8be9fd; stroke:none; fill-opacity:0" cx="788.783" cy="1387.75" r="2"/>
<circle clip-path="url(#clip782)" style="fill:#8be9fd; stroke:none; fill-opacity:0" cx="829.507" cy="1334.34" r="2"/>
<circle clip-path="url(#clip782)" style="fill:#8be9fd; stroke:none; fill-opacity:0" cx="870.231" cy="1258.19" r="2"/>
<circle clip-path="url(#clip782)" style="fill:#8be9fd; stroke:none; fill-opacity:0" cx="910.954" cy="1135.13" r="2"/>
<circle clip-path="url(#clip782)" style="fill:#8be9fd; stroke:none; fill-opacity:0" cx="951.678" cy="1009.18" r="2"/>
<circle clip-path="url(#clip782)" style="fill:#8be9fd; stroke:none; fill-opacity:0" cx="992.401" cy="860.495" r="2"/>
<circle clip-path="url(#clip782)" style="fill:#8be9fd; stroke:none; fill-opacity:0" cx="1033.12" cy="690.339" r="2"/>
<circle clip-path="url(#clip782)" style="fill:#8be9fd; stroke:none; fill-opacity:0" cx="1073.85" cy="540.031" r="2"/>
<circle clip-path="url(#clip782)" style="fill:#8be9fd; stroke:none; fill-opacity:0" cx="1114.57" cy="371.498" r="2"/>
<circle clip-path="url(#clip782)" style="fill:#8be9fd; stroke:none; fill-opacity:0" cx="1155.3" cy="193.222" r="2"/>
<circle clip-path="url(#clip782)" style="fill:#8be9fd; stroke:none; fill-opacity:0" cx="1196.02" cy="115.451" r="2"/>
<circle clip-path="url(#clip782)" style="fill:#8be9fd; stroke:none; fill-opacity:0" cx="1236.74" cy="47.2441" r="2"/>
<circle clip-path="url(#clip782)" style="fill:#8be9fd; stroke:none; fill-opacity:0" cx="1277.47" cy="56.4466" r="2"/>
<circle clip-path="url(#clip782)" style="fill:#8be9fd; stroke:none; fill-opacity:0" cx="1318.19" cy="127.541" r="2"/>
<circle clip-path="url(#clip782)" style="fill:#8be9fd; stroke:none; fill-opacity:0" cx="1358.91" cy="212.168" r="2"/>
<circle clip-path="url(#clip782)" style="fill:#8be9fd; stroke:none; fill-opacity:0" cx="1399.64" cy="366.626" r="2"/>
<circle clip-path="url(#clip782)" style="fill:#8be9fd; stroke:none; fill-opacity:0" cx="1440.36" cy="537.144" r="2"/>
<circle clip-path="url(#clip782)" style="fill:#8be9fd; stroke:none; fill-opacity:0" cx="1481.08" cy="702.789" r="2"/>
<circle clip-path="url(#clip782)" style="fill:#8be9fd; stroke:none; fill-opacity:0" cx="1521.81" cy="848.225" r="2"/>
<circle clip-path="url(#clip782)" style="fill:#8be9fd; stroke:none; fill-opacity:0" cx="1562.53" cy="1016.22" r="2"/>
<circle clip-path="url(#clip782)" style="fill:#8be9fd; stroke:none; fill-opacity:0" cx="1603.25" cy="1146.5" r="2"/>
<circle clip-path="url(#clip782)" style="fill:#8be9fd; stroke:none; fill-opacity:0" cx="1643.98" cy="1254.94" r="2"/>
<circle clip-path="url(#clip782)" style="fill:#8be9fd; stroke:none; fill-opacity:0" cx="1684.7" cy="1324.95" r="2"/>
<circle clip-path="url(#clip782)" style="fill:#8be9fd; stroke:none; fill-opacity:0" cx="1725.43" cy="1388.29" r="2"/>
<circle clip-path="url(#clip782)" style="fill:#8be9fd; stroke:none; fill-opacity:0" cx="1766.15" cy="1425.1" r="2"/>
<circle clip-path="url(#clip782)" style="fill:#8be9fd; stroke:none; fill-opacity:0" cx="1806.87" cy="1445.67" r="2"/>
<circle clip-path="url(#clip782)" style="fill:#8be9fd; stroke:none; fill-opacity:0" cx="1847.6" cy="1459.02" r="2"/>
<circle clip-path="url(#clip782)" style="fill:#8be9fd; stroke:none; fill-opacity:0" cx="1888.32" cy="1477.43" r="2"/>
<circle clip-path="url(#clip782)" style="fill:#8be9fd; stroke:none; fill-opacity:0" cx="1929.04" cy="1479.05" r="2"/>
<circle clip-path="url(#clip782)" style="fill:#8be9fd; stroke:none; fill-opacity:0" cx="1969.77" cy="1483.92" r="2"/>
<circle clip-path="url(#clip782)" style="fill:#8be9fd; stroke:none; fill-opacity:0" cx="2010.49" cy="1484.82" r="2"/>
<circle clip-path="url(#clip782)" style="fill:#8be9fd; stroke:none; fill-opacity:0" cx="2051.21" cy="1485.55" r="2"/>
<circle clip-path="url(#clip782)" style="fill:#8be9fd; stroke:none; fill-opacity:0" cx="2091.94" cy="1485.91" r="2"/>
<circle clip-path="url(#clip782)" style="fill:#8be9fd; stroke:none; fill-opacity:0" cx="2132.66" cy="1486.09" r="2"/>
<circle clip-path="url(#clip782)" style="fill:#8be9fd; stroke:none; fill-opacity:0" cx="2173.38" cy="1486.45" r="2"/>
<circle clip-path="url(#clip782)" style="fill:#8be9fd; stroke:none; fill-opacity:0" cx="2214.11" cy="1486.27" r="2"/>
</svg>
