<?xml version="1.0" encoding="utf-8"?>
<svg xmlns="http://www.w3.org/2000/svg" xmlns:xlink="http://www.w3.org/1999/xlink" width="600" height="400" viewBox="0 0 2400 1600">
<defs>
  <clipPath id="clip690">
    <rect x="0" y="0" width="2400" height="1600"/>
  </clipPath>
</defs>
<path clip-path="url(#clip690)" d="M0 1600 L2400 1600 L2400 0 L0 0  Z" fill="#282a36" fill-rule="evenodd" fill-opacity="1"/>
<defs>
  <clipPath id="clip691">
    <rect x="480" y="0" width="1681" height="1600"/>
  </clipPath>
</defs>
<path clip-path="url(#clip690)" d="M201.019 1486.45 L2352.76 1486.45 L2352.76 47.2441 L201.019 47.2441  Z" fill="#30343b" fill-rule="evenodd" fill-opacity="1"/>
<defs>
  <clipPath id="clip692">
    <rect x="201" y="47" width="2153" height="1440"/>
  </clipPath>
</defs>
<polyline clip-path="url(#clip692)" style="stroke:#f8f8f2; stroke-linecap:round; stroke-linejoin:round; stroke-width:2; stroke-opacity:0.1; fill:none" points="319.369,1486.45 319.369,47.2441 "/>
<polyline clip-path="url(#clip692)" style="stroke:#f8f8f2; stroke-linecap:round; stroke-linejoin:round; stroke-width:2; stroke-opacity:0.1; fill:none" points="798.128,1486.45 798.128,47.2441 "/>
<polyline clip-path="url(#clip692)" style="stroke:#f8f8f2; stroke-linecap:round; stroke-linejoin:round; stroke-width:2; stroke-opacity:0.1; fill:none" points="1276.89,1486.45 1276.89,47.2441 "/>
<polyline clip-path="url(#clip692)" style="stroke:#f8f8f2; stroke-linecap:round; stroke-linejoin:round; stroke-width:2; stroke-opacity:0.1; fill:none" points="1755.65,1486.45 1755.65,47.2441 "/>
<polyline clip-path="url(#clip692)" style="stroke:#f8f8f2; stroke-linecap:round; stroke-linejoin:round; stroke-width:2; stroke-opacity:0.1; fill:none" points="2234.41,1486.45 2234.41,47.2441 "/>
<polyline clip-path="url(#clip690)" style="stroke:#f8f8f2; stroke-linecap:round; stroke-linejoin:round; stroke-width:4; stroke-opacity:1; fill:none" points="201.019,1486.45 2352.76,1486.45 "/>
<polyline clip-path="url(#clip690)" style="stroke:#f8f8f2; stroke-linecap:round; stroke-linejoin:round; stroke-width:4; stroke-opacity:1; fill:none" points="319.369,1486.45 319.369,1467.55 "/>
<polyline clip-path="url(#clip690)" style="stroke:#f8f8f2; stroke-linecap:round; stroke-linejoin:round; stroke-width:4; stroke-opacity:1; fill:none" points="798.128,1486.45 798.128,1467.55 "/>
<polyline clip-path="url(#clip690)" style="stroke:#f8f8f2; stroke-linecap:round; stroke-linejoin:round; stroke-width:4; stroke-opacity:1; fill:none" points="1276.89,1486.45 1276.89,1467.55 "/>
<polyline clip-path="url(#clip690)" style="stroke:#f8f8f2; stroke-linecap:round; stroke-linejoin:round; stroke-width:4; stroke-opacity:1; fill:none" points="1755.65,1486.45 1755.65,1467.55 "/>
<polyline clip-path="url(#clip690)" style="stroke:#f8f8f2; stroke-linecap:round; stroke-linejoin:round; stroke-width:4; stroke-opacity:1; fill:none" points="2234.41,1486.45 2234.41,1467.55 "/>
<path clip-path="url(#clip690)" d="M281.672 1517.37 Q278.061 1517.37 276.232 1520.93 Q274.427 1524.47 274.427 1531.6 Q274.427 1538.71 276.232 1542.27 Q278.061 1545.82 281.672 1545.82 Q285.306 1545.82 287.112 1542.27 Q288.941 1538.71 288.941 1531.6 Q288.941 1524.47 287.112 1520.93 Q285.306 1517.37 281.672 1517.37 M281.672 1513.66 Q287.482 1513.66 290.538 1518.27 Q293.616 1522.85 293.616 1531.6 Q293.616 1540.33 290.538 1544.94 Q287.482 1549.52 281.672 1549.52 Q275.862 1549.52 272.783 1544.94 Q269.728 1540.33 269.728 1531.6 Q269.728 1522.85 272.783 1518.27 Q275.862 1513.66 281.672 1513.66 Z" fill="#f8f8f2" fill-rule="nonzero" fill-opacity="1" /><path clip-path="url(#clip690)" d="M301.834 1542.97 L306.718 1542.97 L306.718 1548.85 L301.834 1548.85 L301.834 1542.97 Z" fill="#f8f8f2" fill-rule="nonzero" fill-opacity="1" /><path clip-path="url(#clip690)" d="M326.903 1517.37 Q323.292 1517.37 321.464 1520.93 Q319.658 1524.47 319.658 1531.6 Q319.658 1538.71 321.464 1542.27 Q323.292 1545.82 326.903 1545.82 Q330.538 1545.82 332.343 1542.27 Q334.172 1538.71 334.172 1531.6 Q334.172 1524.47 332.343 1520.93 Q330.538 1517.37 326.903 1517.37 M326.903 1513.66 Q332.713 1513.66 335.769 1518.27 Q338.848 1522.85 338.848 1531.6 Q338.848 1540.33 335.769 1544.94 Q332.713 1549.52 326.903 1549.52 Q321.093 1549.52 318.014 1544.94 Q314.959 1540.33 314.959 1531.6 Q314.959 1522.85 318.014 1518.27 Q321.093 1513.66 326.903 1513.66 Z" fill="#f8f8f2" fill-rule="nonzero" fill-opacity="1" /><path clip-path="url(#clip690)" d="M357.065 1517.37 Q353.454 1517.37 351.625 1520.93 Q349.82 1524.47 349.82 1531.6 Q349.82 1538.71 351.625 1542.27 Q353.454 1545.82 357.065 1545.82 Q360.699 1545.82 362.505 1542.27 Q364.334 1538.71 364.334 1531.6 Q364.334 1524.47 362.505 1520.93 Q360.699 1517.37 357.065 1517.37 M357.065 1513.66 Q362.875 1513.66 365.931 1518.27 Q369.01 1522.85 369.01 1531.6 Q369.01 1540.33 365.931 1544.94 Q362.875 1549.52 357.065 1549.52 Q351.255 1549.52 348.176 1544.94 Q345.121 1540.33 345.121 1531.6 Q345.121 1522.85 348.176 1518.27 Q351.255 1513.66 357.065 1513.66 Z" fill="#f8f8f2" fill-rule="nonzero" fill-opacity="1" /><path clip-path="url(#clip690)" d="M760.929 1517.37 Q757.318 1517.37 755.489 1520.93 Q753.684 1524.47 753.684 1531.6 Q753.684 1538.71 755.489 1542.27 Q757.318 1545.82 760.929 1545.82 Q764.563 1545.82 766.369 1542.27 Q768.198 1538.71 768.198 1531.6 Q768.198 1524.47 766.369 1520.93 Q764.563 1517.37 760.929 1517.37 M760.929 1513.66 Q766.739 1513.66 769.795 1518.27 Q772.874 1522.85 772.874 1531.6 Q772.874 1540.33 769.795 1544.94 Q766.739 1549.52 760.929 1549.52 Q755.119 1549.52 752.04 1544.94 Q748.985 1540.33 748.985 1531.6 Q748.985 1522.85 752.04 1518.27 Q755.119 1513.66 760.929 1513.66 Z" fill="#f8f8f2" fill-rule="nonzero" fill-opacity="1" /><path clip-path="url(#clip690)" d="M781.091 1542.97 L785.975 1542.97 L785.975 1548.85 L781.091 1548.85 L781.091 1542.97 Z" fill="#f8f8f2" fill-rule="nonzero" fill-opacity="1" /><path clip-path="url(#clip690)" d="M800.188 1544.91 L816.508 1544.91 L816.508 1548.85 L794.563 1548.85 L794.563 1544.91 Q797.225 1542.16 801.809 1537.53 Q806.415 1532.88 807.596 1531.53 Q809.841 1529.01 810.721 1527.27 Q811.623 1525.51 811.623 1523.82 Q811.623 1521.07 809.679 1519.33 Q807.758 1517.6 804.656 1517.6 Q802.457 1517.6 800.003 1518.36 Q797.573 1519.13 794.795 1520.68 L794.795 1515.95 Q797.619 1514.82 800.073 1514.24 Q802.526 1513.66 804.563 1513.66 Q809.934 1513.66 813.128 1516.35 Q816.322 1519.03 816.322 1523.52 Q816.322 1525.65 815.512 1527.57 Q814.725 1529.47 812.619 1532.07 Q812.04 1532.74 808.938 1535.95 Q805.836 1539.15 800.188 1544.91 Z" fill="#f8f8f2" fill-rule="nonzero" fill-opacity="1" /><path clip-path="url(#clip690)" d="M826.369 1514.29 L844.725 1514.29 L844.725 1518.22 L830.651 1518.22 L830.651 1526.7 Q831.67 1526.35 832.688 1526.19 Q833.707 1526 834.725 1526 Q840.512 1526 843.892 1529.17 Q847.271 1532.34 847.271 1537.76 Q847.271 1543.34 843.799 1546.44 Q840.327 1549.52 834.008 1549.52 Q831.832 1549.52 829.563 1549.15 Q827.318 1548.78 824.91 1548.04 L824.91 1543.34 Q826.994 1544.47 829.216 1545.03 Q831.438 1545.58 833.915 1545.58 Q837.92 1545.58 840.258 1543.48 Q842.595 1541.37 842.595 1537.76 Q842.595 1534.15 840.258 1532.04 Q837.92 1529.94 833.915 1529.94 Q832.04 1529.94 830.165 1530.35 Q828.313 1530.77 826.369 1531.65 L826.369 1514.29 Z" fill="#f8f8f2" fill-rule="nonzero" fill-opacity="1" /><path clip-path="url(#clip690)" d="M1239.19 1517.37 Q1235.58 1517.37 1233.75 1520.93 Q1231.95 1524.47 1231.95 1531.6 Q1231.95 1538.71 1233.75 1542.27 Q1235.58 1545.82 1239.19 1545.82 Q1242.83 1545.82 1244.63 1542.27 Q1246.46 1538.71 1246.46 1531.6 Q1246.46 1524.47 1244.63 1520.93 Q1242.83 1517.37 1239.19 1517.37 M1239.19 1513.66 Q1245 1513.66 1248.06 1518.27 Q1251.14 1522.85 1251.14 1531.6 Q1251.14 1540.33 1248.06 1544.94 Q1245 1549.52 1239.19 1549.52 Q1233.38 1549.52 1230.3 1544.94 Q1227.25 1540.33 1227.25 1531.6 Q1227.25 1522.85 1230.3 1518.27 Q1233.38 1513.66 1239.19 1513.66 Z" fill="#f8f8f2" fill-rule="nonzero" fill-opacity="1" /><path clip-path="url(#clip690)" d="M1259.35 1542.97 L1264.24 1542.97 L1264.24 1548.85 L1259.35 1548.85 L1259.35 1542.97 Z" fill="#f8f8f2" fill-rule="nonzero" fill-opacity="1" /><path clip-path="url(#clip690)" d="M1274.47 1514.29 L1292.83 1514.29 L1292.83 1518.22 L1278.75 1518.22 L1278.75 1526.7 Q1279.77 1526.35 1280.79 1526.19 Q1281.81 1526 1282.83 1526 Q1288.61 1526 1291.99 1529.17 Q1295.37 1532.34 1295.37 1537.76 Q1295.37 1543.34 1291.9 1546.44 Q1288.43 1549.52 1282.11 1549.52 Q1279.93 1549.52 1277.66 1549.15 Q1275.42 1548.78 1273.01 1548.04 L1273.01 1543.34 Q1275.09 1544.47 1277.32 1545.03 Q1279.54 1545.58 1282.01 1545.58 Q1286.02 1545.58 1288.36 1543.48 Q1290.7 1541.37 1290.7 1537.76 Q1290.7 1534.15 1288.36 1532.04 Q1286.02 1529.94 1282.01 1529.94 Q1280.14 1529.94 1278.26 1530.35 Q1276.41 1530.77 1274.47 1531.65 L1274.47 1514.29 Z" fill="#f8f8f2" fill-rule="nonzero" fill-opacity="1" /><path clip-path="url(#clip690)" d="M1314.58 1517.37 Q1310.97 1517.37 1309.14 1520.93 Q1307.34 1524.47 1307.34 1531.6 Q1307.34 1538.71 1309.14 1542.27 Q1310.97 1545.82 1314.58 1545.82 Q1318.22 1545.82 1320.02 1542.27 Q1321.85 1538.71 1321.85 1531.6 Q1321.85 1524.47 1320.02 1520.93 Q1318.22 1517.37 1314.58 1517.37 M1314.58 1513.66 Q1320.39 1513.66 1323.45 1518.27 Q1326.53 1522.85 1326.53 1531.6 Q1326.53 1540.33 1323.45 1544.94 Q1320.39 1549.52 1314.58 1549.52 Q1308.77 1549.52 1305.7 1544.94 Q1302.64 1540.33 1302.64 1531.6 Q1302.64 1522.85 1305.7 1518.27 Q1308.77 1513.66 1314.58 1513.66 Z" fill="#f8f8f2" fill-rule="nonzero" fill-opacity="1" /><path clip-path="url(#clip690)" d="M1718.45 1517.37 Q1714.84 1517.37 1713.01 1520.93 Q1711.2 1524.47 1711.2 1531.6 Q1711.2 1538.71 1713.01 1542.27 Q1714.84 1545.82 1718.45 1545.82 Q1722.08 1545.82 1723.89 1542.27 Q1725.72 1538.71 1725.72 1531.6 Q1725.72 1524.47 1723.89 1520.93 Q1722.08 1517.37 1718.45 1517.37 M1718.45 1513.66 Q1724.26 1513.66 1727.31 1518.27 Q1730.39 1522.85 1730.39 1531.6 Q1730.39 1540.33 1727.31 1544.94 Q1724.26 1549.52 1718.45 1549.52 Q1712.64 1549.52 1709.56 1544.94 Q1706.5 1540.33 1706.5 1531.6 Q1706.5 1522.85 1709.56 1518.27 Q1712.64 1513.66 1718.45 1513.66 Z" fill="#f8f8f2" fill-rule="nonzero" fill-opacity="1" /><path clip-path="url(#clip690)" d="M1738.61 1542.97 L1743.49 1542.97 L1743.49 1548.85 L1738.61 1548.85 L1738.61 1542.97 Z" fill="#f8f8f2" fill-rule="nonzero" fill-opacity="1" /><path clip-path="url(#clip690)" d="M1752.5 1514.29 L1774.72 1514.29 L1774.72 1516.28 L1762.17 1548.85 L1757.29 1548.85 L1769.1 1518.22 L1752.5 1518.22 L1752.5 1514.29 Z" fill="#f8f8f2" fill-rule="nonzero" fill-opacity="1" /><path clip-path="url(#clip690)" d="M1783.89 1514.29 L1802.24 1514.29 L1802.24 1518.22 L1788.17 1518.22 L1788.17 1526.7 Q1789.19 1526.35 1790.21 1526.19 Q1791.23 1526 1792.24 1526 Q1798.03 1526 1801.41 1529.17 Q1804.79 1532.34 1804.79 1537.76 Q1804.79 1543.34 1801.32 1546.44 Q1797.85 1549.52 1791.53 1549.52 Q1789.35 1549.52 1787.08 1549.15 Q1784.84 1548.78 1782.43 1548.04 L1782.43 1543.34 Q1784.51 1544.47 1786.73 1545.03 Q1788.96 1545.58 1791.43 1545.58 Q1795.44 1545.58 1797.78 1543.48 Q1800.11 1541.37 1800.11 1537.76 Q1800.11 1534.15 1797.78 1532.04 Q1795.44 1529.94 1791.43 1529.94 Q1789.56 1529.94 1787.68 1530.35 Q1785.83 1530.77 1783.89 1531.65 L1783.89 1514.29 Z" fill="#f8f8f2" fill-rule="nonzero" fill-opacity="1" /><path clip-path="url(#clip690)" d="M2186.48 1544.91 L2194.12 1544.91 L2194.12 1518.55 L2185.81 1520.21 L2185.81 1515.95 L2194.07 1514.29 L2198.75 1514.29 L2198.75 1544.91 L2206.39 1544.91 L2206.39 1548.85 L2186.48 1548.85 L2186.48 1544.91 Z" fill="#f8f8f2" fill-rule="nonzero" fill-opacity="1" /><path clip-path="url(#clip690)" d="M2215.83 1542.97 L2220.71 1542.97 L2220.71 1548.85 L2215.83 1548.85 L2215.83 1542.97 Z" fill="#f8f8f2" fill-rule="nonzero" fill-opacity="1" /><path clip-path="url(#clip690)" d="M2240.9 1517.37 Q2237.29 1517.37 2235.46 1520.93 Q2233.65 1524.47 2233.65 1531.6 Q2233.65 1538.71 2235.46 1542.27 Q2237.29 1545.82 2240.9 1545.82 Q2244.53 1545.82 2246.34 1542.27 Q2248.17 1538.71 2248.17 1531.6 Q2248.17 1524.47 2246.34 1520.93 Q2244.53 1517.37 2240.9 1517.37 M2240.9 1513.66 Q2246.71 1513.66 2249.77 1518.27 Q2252.84 1522.85 2252.84 1531.6 Q2252.84 1540.33 2249.77 1544.94 Q2246.71 1549.52 2240.9 1549.52 Q2235.09 1549.52 2232.01 1544.94 Q2228.96 1540.33 2228.96 1531.6 Q2228.96 1522.85 2232.01 1518.27 Q2235.09 1513.66 2240.9 1513.66 Z" fill="#f8f8f2" fill-rule="nonzero" fill-opacity="1" /><path clip-path="url(#clip690)" d="M2271.06 1517.37 Q2267.45 1517.37 2265.62 1520.93 Q2263.82 1524.47 2263.82 1531.6 Q2263.82 1538.71 2265.62 1542.27 Q2267.45 1545.82 2271.06 1545.82 Q2274.7 1545.82 2276.5 1542.27 Q2278.33 1538.71 2278.33 1531.6 Q2278.33 1524.47 2276.5 1520.93 Q2274.7 1517.37 2271.06 1517.37 M2271.06 1513.66 Q2276.87 1513.66 2279.93 1518.27 Q2283.01 1522.85 2283.01 1531.6 Q2283.01 1540.33 2279.93 1544.94 Q2276.87 1549.52 2271.06 1549.52 Q2265.25 1549.52 2262.17 1544.94 Q2259.12 1540.33 2259.12 1531.6 Q2259.12 1522.85 2262.17 1518.27 Q2265.25 1513.66 2271.06 1513.66 Z" fill="#f8f8f2" fill-rule="nonzero" fill-opacity="1" /><polyline clip-path="url(#clip692)" style="stroke:#f8f8f2; stroke-linecap:round; stroke-linejoin:round; stroke-width:2; stroke-opacity:0.1; fill:none" points="201.019,1486.45 2352.76,1486.45 "/>
<polyline clip-path="url(#clip692)" style="stroke:#f8f8f2; stroke-linecap:round; stroke-linejoin:round; stroke-width:2; stroke-opacity:0.1; fill:none" points="201.019,1146.21 2352.76,1146.21 "/>
<polyline clip-path="url(#clip692)" style="stroke:#f8f8f2; stroke-linecap:round; stroke-linejoin:round; stroke-width:2; stroke-opacity:0.1; fill:none" points="201.019,805.973 2352.76,805.973 "/>
<polyline clip-path="url(#clip692)" style="stroke:#f8f8f2; stroke-linecap:round; stroke-linejoin:round; stroke-width:2; stroke-opacity:0.1; fill:none" points="201.019,465.736 2352.76,465.736 "/>
<polyline clip-path="url(#clip692)" style="stroke:#f8f8f2; stroke-linecap:round; stroke-linejoin:round; stroke-width:2; stroke-opacity:0.1; fill:none" points="201.019,125.499 2352.76,125.499 "/>
<polyline clip-path="url(#clip690)" style="stroke:#f8f8f2; stroke-linecap:round; stroke-linejoin:round; stroke-width:4; stroke-opacity:1; fill:none" points="201.019,1486.45 201.019,47.2441 "/>
<polyline clip-path="url(#clip690)" style="stroke:#f8f8f2; stroke-linecap:round; stroke-linejoin:round; stroke-width:4; stroke-opacity:1; fill:none" points="201.019,1486.45 219.917,1486.45 "/>
<polyline clip-path="url(#clip690)" style="stroke:#f8f8f2; stroke-linecap:round; stroke-linejoin:round; stroke-width:4; stroke-opacity:1; fill:none" points="201.019,1146.21 219.917,1146.21 "/>
<polyline clip-path="url(#clip690)" style="stroke:#f8f8f2; stroke-linecap:round; stroke-linejoin:round; stroke-width:4; stroke-opacity:1; fill:none" points="201.019,805.973 219.917,805.973 "/>
<polyline clip-path="url(#clip690)" style="stroke:#f8f8f2; stroke-linecap:round; stroke-linejoin:round; stroke-width:4; stroke-opacity:1; fill:none" points="201.019,465.736 219.917,465.736 "/>
<polyline clip-path="url(#clip690)" style="stroke:#f8f8f2; stroke-linecap:round; stroke-linejoin:round; stroke-width:4; stroke-opacity:1; fill:none" points="201.019,125.499 219.917,125.499 "/>
<path clip-path="url(#clip690)" d="M153.075 1472.25 Q149.464 1472.25 147.635 1475.81 Q145.83 1479.35 145.83 1486.48 Q145.83 1493.59 147.635 1497.15 Q149.464 1500.7 153.075 1500.7 Q156.709 1500.7 158.515 1497.15 Q160.343 1493.59 160.343 1486.48 Q160.343 1479.35 158.515 1475.81 Q156.709 1472.25 153.075 1472.25 M153.075 1468.54 Q158.885 1468.54 161.941 1473.15 Q165.019 1477.73 165.019 1486.48 Q165.019 1495.21 161.941 1499.82 Q158.885 1504.4 153.075 1504.4 Q147.265 1504.4 144.186 1499.82 Q141.131 1495.21 141.131 1486.48 Q141.131 1477.73 144.186 1473.15 Q147.265 1468.54 153.075 1468.54 Z" fill="#f8f8f2" fill-rule="nonzero" fill-opacity="1" /><path clip-path="url(#clip690)" d="M82.7975 1128.93 L101.154 1128.93 L101.154 1132.87 L87.0799 1132.87 L87.0799 1141.34 Q88.0984 1140.99 89.1169 1140.83 Q90.1354 1140.64 91.1539 1140.64 Q96.941 1140.64 100.321 1143.81 Q103.7 1146.99 103.7 1152.4 Q103.7 1157.98 100.228 1161.08 Q96.7558 1164.16 90.4364 1164.16 Q88.2604 1164.16 85.9919 1163.79 Q83.7466 1163.42 81.3392 1162.68 L81.3392 1157.98 Q83.4225 1159.12 85.6447 1159.67 Q87.8669 1160.23 90.3438 1160.23 Q94.3484 1160.23 96.6863 1158.12 Q99.0243 1156.01 99.0243 1152.4 Q99.0243 1148.79 96.6863 1146.69 Q94.3484 1144.58 90.3438 1144.58 Q88.4688 1144.58 86.5938 1145 Q84.7419 1145.41 82.7975 1146.29 L82.7975 1128.93 Z" fill="#f8f8f2" fill-rule="nonzero" fill-opacity="1" /><path clip-path="url(#clip690)" d="M122.913 1132.01 Q119.302 1132.01 117.473 1135.57 Q115.668 1139.12 115.668 1146.25 Q115.668 1153.35 117.473 1156.92 Q119.302 1160.46 122.913 1160.46 Q126.547 1160.46 128.353 1156.92 Q130.182 1153.35 130.182 1146.25 Q130.182 1139.12 128.353 1135.57 Q126.547 1132.01 122.913 1132.01 M122.913 1128.31 Q128.723 1128.31 131.779 1132.91 Q134.857 1137.5 134.857 1146.25 Q134.857 1154.97 131.779 1159.58 Q128.723 1164.16 122.913 1164.16 Q117.103 1164.16 114.024 1159.58 Q110.969 1154.97 110.969 1146.25 Q110.969 1137.5 114.024 1132.91 Q117.103 1128.31 122.913 1128.31 Z" fill="#f8f8f2" fill-rule="nonzero" fill-opacity="1" /><path clip-path="url(#clip690)" d="M153.075 1132.01 Q149.464 1132.01 147.635 1135.57 Q145.83 1139.12 145.83 1146.25 Q145.83 1153.35 147.635 1156.92 Q149.464 1160.46 153.075 1160.46 Q156.709 1160.46 158.515 1156.92 Q160.343 1153.35 160.343 1146.25 Q160.343 1139.12 158.515 1135.57 Q156.709 1132.01 153.075 1132.01 M153.075 1128.31 Q158.885 1128.31 161.941 1132.91 Q165.019 1137.5 165.019 1146.25 Q165.019 1154.97 161.941 1159.58 Q158.885 1164.16 153.075 1164.16 Q147.265 1164.16 144.186 1159.58 Q141.131 1154.97 141.131 1146.25 Q141.131 1137.5 144.186 1132.91 Q147.265 1128.31 153.075 1128.31 Z" fill="#f8f8f2" fill-rule="nonzero" fill-opacity="1" /><path clip-path="url(#clip690)" d="M53.3995 819.318 L61.0384 819.318 L61.0384 792.953 L52.7282 794.619 L52.7282 790.36 L60.9921 788.693 L65.668 788.693 L65.668 819.318 L73.3068 819.318 L73.3068 823.253 L53.3995 823.253 L53.3995 819.318 Z" fill="#f8f8f2" fill-rule="nonzero" fill-opacity="1" /><path clip-path="url(#clip690)" d="M92.7512 791.772 Q89.1401 791.772 87.3114 795.337 Q85.5058 798.878 85.5058 806.008 Q85.5058 813.114 87.3114 816.679 Q89.1401 820.221 92.7512 820.221 Q96.3854 820.221 98.1909 816.679 Q100.02 813.114 100.02 806.008 Q100.02 798.878 98.1909 795.337 Q96.3854 791.772 92.7512 791.772 M92.7512 788.068 Q98.5613 788.068 101.617 792.675 Q104.696 797.258 104.696 806.008 Q104.696 814.735 101.617 819.341 Q98.5613 823.925 92.7512 823.925 Q86.941 823.925 83.8623 819.341 Q80.8068 814.735 80.8068 806.008 Q80.8068 797.258 83.8623 792.675 Q86.941 788.068 92.7512 788.068 Z" fill="#f8f8f2" fill-rule="nonzero" fill-opacity="1" /><path clip-path="url(#clip690)" d="M122.913 791.772 Q119.302 791.772 117.473 795.337 Q115.668 798.878 115.668 806.008 Q115.668 813.114 117.473 816.679 Q119.302 820.221 122.913 820.221 Q126.547 820.221 128.353 816.679 Q130.182 813.114 130.182 806.008 Q130.182 798.878 128.353 795.337 Q126.547 791.772 122.913 791.772 M122.913 788.068 Q128.723 788.068 131.779 792.675 Q134.857 797.258 134.857 806.008 Q134.857 814.735 131.779 819.341 Q128.723 823.925 122.913 823.925 Q117.103 823.925 114.024 819.341 Q110.969 814.735 110.969 806.008 Q110.969 797.258 114.024 792.675 Q117.103 788.068 122.913 788.068 Z" fill="#f8f8f2" fill-rule="nonzero" fill-opacity="1" /><path clip-path="url(#clip690)" d="M153.075 791.772 Q149.464 791.772 147.635 795.337 Q145.83 798.878 145.83 806.008 Q145.83 813.114 147.635 816.679 Q149.464 820.221 153.075 820.221 Q156.709 820.221 158.515 816.679 Q160.343 813.114 160.343 806.008 Q160.343 798.878 158.515 795.337 Q156.709 791.772 153.075 791.772 M153.075 788.068 Q158.885 788.068 161.941 792.675 Q165.019 797.258 165.019 806.008 Q165.019 814.735 161.941 819.341 Q158.885 823.925 153.075 823.925 Q147.265 823.925 144.186 819.341 Q141.131 814.735 141.131 806.008 Q141.131 797.258 144.186 792.675 Q147.265 788.068 153.075 788.068 Z" fill="#f8f8f2" fill-rule="nonzero" fill-opacity="1" /><path clip-path="url(#clip690)" d="M53.3995 479.081 L61.0384 479.081 L61.0384 452.715 L52.7282 454.382 L52.7282 450.123 L60.9921 448.456 L65.668 448.456 L65.668 479.081 L73.3068 479.081 L73.3068 483.016 L53.3995 483.016 L53.3995 479.081 Z" fill="#f8f8f2" fill-rule="nonzero" fill-opacity="1" /><path clip-path="url(#clip690)" d="M82.7975 448.456 L101.154 448.456 L101.154 452.391 L87.0799 452.391 L87.0799 460.863 Q88.0984 460.516 89.1169 460.354 Q90.1354 460.169 91.1539 460.169 Q96.941 460.169 100.321 463.34 Q103.7 466.511 103.7 471.928 Q103.7 477.507 100.228 480.609 Q96.7558 483.687 90.4364 483.687 Q88.2604 483.687 85.9919 483.317 Q83.7466 482.947 81.3392 482.206 L81.3392 477.507 Q83.4225 478.641 85.6447 479.197 Q87.8669 479.752 90.3438 479.752 Q94.3484 479.752 96.6863 477.646 Q99.0243 475.539 99.0243 471.928 Q99.0243 468.317 96.6863 466.211 Q94.3484 464.104 90.3438 464.104 Q88.4688 464.104 86.5938 464.521 Q84.7419 464.937 82.7975 465.817 L82.7975 448.456 Z" fill="#f8f8f2" fill-rule="nonzero" fill-opacity="1" /><path clip-path="url(#clip690)" d="M122.913 451.535 Q119.302 451.535 117.473 455.099 Q115.668 458.641 115.668 465.771 Q115.668 472.877 117.473 476.442 Q119.302 479.984 122.913 479.984 Q126.547 479.984 128.353 476.442 Q130.182 472.877 130.182 465.771 Q130.182 458.641 128.353 455.099 Q126.547 451.535 122.913 451.535 M122.913 447.831 Q128.723 447.831 131.779 452.437 Q134.857 457.021 134.857 465.771 Q134.857 474.498 131.779 479.104 Q128.723 483.687 122.913 483.687 Q117.103 483.687 114.024 479.104 Q110.969 474.498 110.969 465.771 Q110.969 457.021 114.024 452.437 Q117.103 447.831 122.913 447.831 Z" fill="#f8f8f2" fill-rule="nonzero" fill-opacity="1" /><path clip-path="url(#clip690)" d="M153.075 451.535 Q149.464 451.535 147.635 455.099 Q145.83 458.641 145.83 465.771 Q145.83 472.877 147.635 476.442 Q149.464 479.984 153.075 479.984 Q156.709 479.984 158.515 476.442 Q160.343 472.877 160.343 465.771 Q160.343 458.641 158.515 455.099 Q156.709 451.535 153.075 451.535 M153.075 447.831 Q158.885 447.831 161.941 452.437 Q165.019 457.021 165.019 465.771 Q165.019 474.498 161.941 479.104 Q158.885 483.687 153.075 483.687 Q147.265 483.687 144.186 479.104 Q141.131 474.498 141.131 465.771 Q141.131 457.021 144.186 452.437 Q147.265 447.831 153.075 447.831 Z" fill="#f8f8f2" fill-rule="nonzero" fill-opacity="1" /><path clip-path="url(#clip690)" d="M56.6171 138.844 L72.9365 138.844 L72.9365 142.779 L50.9921 142.779 L50.9921 138.844 Q53.6541 136.089 58.2375 131.459 Q62.8439 126.807 64.0245 125.464 Q66.2698 122.941 67.1494 121.205 Q68.0522 119.445 68.0522 117.756 Q68.0522 115.001 66.1078 113.265 Q64.1865 111.529 61.0847 111.529 Q58.8856 111.529 56.4319 112.293 Q54.0014 113.057 51.2236 114.608 L51.2236 109.885 Q54.0477 108.751 56.5014 108.172 Q58.955 107.594 60.9921 107.594 Q66.3624 107.594 69.5568 110.279 Q72.7513 112.964 72.7513 117.455 Q72.7513 119.584 71.9411 121.506 Q71.1541 123.404 69.0476 125.996 Q68.4689 126.668 65.367 129.885 Q62.2652 133.08 56.6171 138.844 Z" fill="#f8f8f2" fill-rule="nonzero" fill-opacity="1" /><path clip-path="url(#clip690)" d="M92.7512 111.297 Q89.1401 111.297 87.3114 114.862 Q85.5058 118.404 85.5058 125.533 Q85.5058 132.64 87.3114 136.205 Q89.1401 139.746 92.7512 139.746 Q96.3854 139.746 98.1909 136.205 Q100.02 132.64 100.02 125.533 Q100.02 118.404 98.1909 114.862 Q96.3854 111.297 92.7512 111.297 M92.7512 107.594 Q98.5613 107.594 101.617 112.2 Q104.696 116.783 104.696 125.533 Q104.696 134.26 101.617 138.867 Q98.5613 143.45 92.7512 143.45 Q86.941 143.45 83.8623 138.867 Q80.8068 134.26 80.8068 125.533 Q80.8068 116.783 83.8623 112.2 Q86.941 107.594 92.7512 107.594 Z" fill="#f8f8f2" fill-rule="nonzero" fill-opacity="1" /><path clip-path="url(#clip690)" d="M122.913 111.297 Q119.302 111.297 117.473 114.862 Q115.668 118.404 115.668 125.533 Q115.668 132.64 117.473 136.205 Q119.302 139.746 122.913 139.746 Q126.547 139.746 128.353 136.205 Q130.182 132.64 130.182 125.533 Q130.182 118.404 128.353 114.862 Q126.547 111.297 122.913 111.297 M122.913 107.594 Q128.723 107.594 131.779 112.2 Q134.857 116.783 134.857 125.533 Q134.857 134.26 131.779 138.867 Q128.723 143.45 122.913 143.45 Q117.103 143.45 114.024 138.867 Q110.969 134.26 110.969 125.533 Q110.969 116.783 114.024 112.2 Q117.103 107.594 122.913 107.594 Z" fill="#f8f8f2" fill-rule="nonzero" fill-opacity="1" /><path clip-path="url(#clip690)" d="M153.075 111.297 Q149.464 111.297 147.635 114.862 Q145.83 118.404 145.83 125.533 Q145.83 132.64 147.635 136.205 Q149.464 139.746 153.075 139.746 Q156.709 139.746 158.515 136.205 Q160.343 132.64 160.343 125.533 Q160.343 118.404 158.515 114.862 Q156.709 111.297 153.075 111.297 M153.075 107.594 Q158.885 107.594 161.941 112.2 Q165.019 116.783 165.019 125.533 Q165.019 134.26 161.941 138.867 Q158.885 143.45 153.075 143.45 Q147.265 143.45 144.186 138.867 Q141.131 134.26 141.131 125.533 Q141.131 116.783 144.186 112.2 Q147.265 107.594 153.075 107.594 Z" fill="#f8f8f2" fill-rule="nonzero" fill-opacity="1" /><path clip-path="url(#clip692)" d="M319.369 93.5164 L319.369 1486.45 L357.669 1486.45 L357.669 93.5164 L319.369 93.5164 L319.369 93.5164  Z" fill="#8be9fd" fill-rule="evenodd" fill-opacity="1"/>
<polyline clip-path="url(#clip692)" style="stroke:#f8f8f2; stroke-linecap:round; stroke-linejoin:round; stroke-width:4; stroke-opacity:1; fill:none" points="319.369,93.5164 319.369,1486.45 357.669,1486.45 357.669,93.5164 319.369,93.5164 "/>
<path clip-path="url(#clip692)" d="M357.669 161.564 L357.669 1486.45 L395.97 1486.45 L395.97 161.564 L357.669 161.564 L357.669 161.564  Z" fill="#8be9fd" fill-rule="evenodd" fill-opacity="1"/>
<polyline clip-path="url(#clip692)" style="stroke:#f8f8f2; stroke-linecap:round; stroke-linejoin:round; stroke-width:4; stroke-opacity:1; fill:none" points="357.669,161.564 357.669,1486.45 395.97,1486.45 395.97,161.564 357.669,161.564 "/>
<path clip-path="url(#clip692)" d="M395.97 109.848 L395.97 1486.45 L434.271 1486.45 L434.271 109.848 L395.97 109.848 L395.97 109.848  Z" fill="#8be9fd" fill-rule="evenodd" fill-opacity="1"/>
<polyline clip-path="url(#clip692)" style="stroke:#f8f8f2; stroke-linecap:round; stroke-linejoin:round; stroke-width:4; stroke-opacity:1; fill:none" points="395.97,109.848 395.97,1486.45 434.271,1486.45 434.271,109.848 395.97,109.848 "/>
<path clip-path="url(#clip692)" d="M434.271 113.931 L434.271 1486.45 L472.572 1486.45 L472.572 113.931 L434.271 113.931 L434.271 113.931  Z" fill="#8be9fd" fill-rule="evenodd" fill-opacity="1"/>
<polyline clip-path="url(#clip692)" style="stroke:#f8f8f2; stroke-linecap:round; stroke-linejoin:round; stroke-width:4; stroke-opacity:1; fill:none" points="434.271,113.931 434.271,1486.45 472.572,1486.45 472.572,113.931 434.271,113.931 "/>
<path clip-path="url(#clip692)" d="M472.572 71.0607 L472.572 1486.45 L510.872 1486.45 L510.872 71.0607 L472.572 71.0607 L472.572 71.0607  Z" fill="#8be9fd" fill-rule="evenodd" fill-opacity="1"/>
<polyline clip-path="url(#clip692)" style="stroke:#f8f8f2; stroke-linecap:round; stroke-linejoin:round; stroke-width:4; stroke-opacity:1; fill:none" points="472.572,71.0607 472.572,1486.45 510.872,1486.45 510.872,71.0607 472.572,71.0607 "/>
<path clip-path="url(#clip692)" d="M510.872 130.262 L510.872 1486.45 L549.173 1486.45 L549.173 130.262 L510.872 130.262 L510.872 130.262  Z" fill="#8be9fd" fill-rule="evenodd" fill-opacity="1"/>
<polyline clip-path="url(#clip692)" style="stroke:#f8f8f2; stroke-linecap:round; stroke-linejoin:round; stroke-width:4; stroke-opacity:1; fill:none" points="510.872,130.262 510.872,1486.45 549.173,1486.45 549.173,130.262 510.872,130.262 "/>
<path clip-path="url(#clip692)" d="M549.173 175.854 L549.173 1486.45 L587.474 1486.45 L587.474 175.854 L549.173 175.854 L549.173 175.854  Z" fill="#8be9fd" fill-rule="evenodd" fill-opacity="1"/>
<polyline clip-path="url(#clip692)" style="stroke:#f8f8f2; stroke-linecap:round; stroke-linejoin:round; stroke-width:4; stroke-opacity:1; fill:none" points="549.173,175.854 549.173,1486.45 587.474,1486.45 587.474,175.854 549.173,175.854 "/>
<path clip-path="url(#clip692)" d="M587.474 77.185 L587.474 1486.45 L625.775 1486.45 L625.775 77.185 L587.474 77.185 L587.474 77.185  Z" fill="#8be9fd" fill-rule="evenodd" fill-opacity="1"/>
<polyline clip-path="url(#clip692)" style="stroke:#f8f8f2; stroke-linecap:round; stroke-linejoin:round; stroke-width:4; stroke-opacity:1; fill:none" points="587.474,77.185 587.474,1486.45 625.775,1486.45 625.775,77.185 587.474,77.185 "/>
<path clip-path="url(#clip692)" d="M625.775 47.2441 L625.775 1486.45 L664.075 1486.45 L664.075 47.2441 L625.775 47.2441 L625.775 47.2441  Z" fill="#8be9fd" fill-rule="evenodd" fill-opacity="1"/>
<polyline clip-path="url(#clip692)" style="stroke:#f8f8f2; stroke-linecap:round; stroke-linejoin:round; stroke-width:4; stroke-opacity:1; fill:none" points="625.775,47.2441 625.775,1486.45 664.075,1486.45 664.075,47.2441 625.775,47.2441 "/>
<path clip-path="url(#clip692)" d="M664.075 113.931 L664.075 1486.45 L702.376 1486.45 L702.376 113.931 L664.075 113.931 L664.075 113.931  Z" fill="#8be9fd" fill-rule="evenodd" fill-opacity="1"/>
<polyline clip-path="url(#clip692)" style="stroke:#f8f8f2; stroke-linecap:round; stroke-linejoin:round; stroke-width:4; stroke-opacity:1; fill:none" points="664.075,113.931 664.075,1486.45 702.376,1486.45 702.376,113.931 664.075,113.931 "/>
<path clip-path="url(#clip692)" d="M702.376 125.499 L702.376 1486.45 L740.677 1486.45 L740.677 125.499 L702.376 125.499 L702.376 125.499  Z" fill="#8be9fd" fill-rule="evenodd" fill-opacity="1"/>
<polyline clip-path="url(#clip692)" style="stroke:#f8f8f2; stroke-linecap:round; stroke-linejoin:round; stroke-width:4; stroke-opacity:1; fill:none" points="702.376,125.499 702.376,1486.45 740.677,1486.45 740.677,125.499 702.376,125.499 "/>
<path clip-path="url(#clip692)" d="M740.677 143.871 L740.677 1486.45 L778.978 1486.45 L778.978 143.871 L740.677 143.871 L740.677 143.871  Z" fill="#8be9fd" fill-rule="evenodd" fill-opacity="1"/>
<polyline clip-path="url(#clip692)" style="stroke:#f8f8f2; stroke-linecap:round; stroke-linejoin:round; stroke-width:4; stroke-opacity:1; fill:none" points="740.677,143.871 740.677,1486.45 778.978,1486.45 778.978,143.871 740.677,143.871 "/>
<path clip-path="url(#clip692)" d="M778.978 88.0726 L778.978 1486.45 L817.278 1486.45 L817.278 88.0726 L778.978 88.0726 L778.978 88.0726  Z" fill="#8be9fd" fill-rule="evenodd" fill-opacity="1"/>
<polyline clip-path="url(#clip692)" style="stroke:#f8f8f2; stroke-linecap:round; stroke-linejoin:round; stroke-width:4; stroke-opacity:1; fill:none" points="778.978,88.0726 778.978,1486.45 817.278,1486.45 817.278,88.0726 778.978,88.0726 "/>
<path clip-path="url(#clip692)" d="M817.278 139.789 L817.278 1486.45 L855.579 1486.45 L855.579 139.789 L817.278 139.789 L817.278 139.789  Z" fill="#8be9fd" fill-rule="evenodd" fill-opacity="1"/>
<polyline clip-path="url(#clip692)" style="stroke:#f8f8f2; stroke-linecap:round; stroke-linejoin:round; stroke-width:4; stroke-opacity:1; fill:none" points="817.278,139.789 817.278,1486.45 855.579,1486.45 855.579,139.789 817.278,139.789 "/>
<path clip-path="url(#clip692)" d="M855.579 147.954 L855.579 1486.45 L893.88 1486.45 L893.88 147.954 L855.579 147.954 L855.579 147.954  Z" fill="#8be9fd" fill-rule="evenodd" fill-opacity="1"/>
<polyline clip-path="url(#clip692)" style="stroke:#f8f8f2; stroke-linecap:round; stroke-linejoin:round; stroke-width:4; stroke-opacity:1; fill:none" points="855.579,147.954 855.579,1486.45 893.88,1486.45 893.88,147.954 855.579,147.954 "/>
<path clip-path="url(#clip692)" d="M893.88 102.363 L893.88 1486.45 L932.181 1486.45 L932.181 102.363 L893.88 102.363 L893.88 102.363  Z" fill="#8be9fd" fill-rule="evenodd" fill-opacity="1"/>
<polyline clip-path="url(#clip692)" style="stroke:#f8f8f2; stroke-linecap:round; stroke-linejoin:round; stroke-width:4; stroke-opacity:1; fill:none" points="893.88,102.363 893.88,1486.45 932.181,1486.45 932.181,102.363 893.88,102.363 "/>
<path clip-path="url(#clip692)" d="M932.181 169.049 L932.181 1486.45 L970.482 1486.45 L970.482 169.049 L932.181 169.049 L932.181 169.049  Z" fill="#8be9fd" fill-rule="evenodd" fill-opacity="1"/>
<polyline clip-path="url(#clip692)" style="stroke:#f8f8f2; stroke-linecap:round; stroke-linejoin:round; stroke-width:4; stroke-opacity:1; fill:none" points="932.181,169.049 932.181,1486.45 970.482,1486.45 970.482,169.049 932.181,169.049 "/>
<path clip-path="url(#clip692)" d="M970.482 134.345 L970.482 1486.45 L1008.78 1486.45 L1008.78 134.345 L970.482 134.345 L970.482 134.345  Z" fill="#8be9fd" fill-rule="evenodd" fill-opacity="1"/>
<polyline clip-path="url(#clip692)" style="stroke:#f8f8f2; stroke-linecap:round; stroke-linejoin:round; stroke-width:4; stroke-opacity:1; fill:none" points="970.482,134.345 970.482,1486.45 1008.78,1486.45 1008.78,134.345 970.482,134.345 "/>
<path clip-path="url(#clip692)" d="M1008.78 97.5992 L1008.78 1486.45 L1047.08 1486.45 L1047.08 97.5992 L1008.78 97.5992 L1008.78 97.5992  Z" fill="#8be9fd" fill-rule="evenodd" fill-opacity="1"/>
<polyline clip-path="url(#clip692)" style="stroke:#f8f8f2; stroke-linecap:round; stroke-linejoin:round; stroke-width:4; stroke-opacity:1; fill:none" points="1008.78,97.5992 1008.78,1486.45 1047.08,1486.45 1047.08,97.5992 1008.78,97.5992 "/>
<path clip-path="url(#clip692)" d="M1047.08 75.824 L1047.08 1486.45 L1085.38 1486.45 L1085.38 75.824 L1047.08 75.824 L1047.08 75.824  Z" fill="#8be9fd" fill-rule="evenodd" fill-opacity="1"/>
<polyline clip-path="url(#clip692)" style="stroke:#f8f8f2; stroke-linecap:round; stroke-linejoin:round; stroke-width:4; stroke-opacity:1; fill:none" points="1047.08,75.824 1047.08,1486.45 1085.38,1486.45 1085.38,75.824 1047.08,75.824 "/>
<path clip-path="url(#clip692)" d="M1085.38 167.008 L1085.38 1486.45 L1123.68 1486.45 L1123.68 167.008 L1085.38 167.008 L1085.38 167.008  Z" fill="#8be9fd" fill-rule="evenodd" fill-opacity="1"/>
<polyline clip-path="url(#clip692)" style="stroke:#f8f8f2; stroke-linecap:round; stroke-linejoin:round; stroke-width:4; stroke-opacity:1; fill:none" points="1085.38,167.008 1085.38,1486.45 1123.68,1486.45 1123.68,167.008 1085.38,167.008 "/>
<path clip-path="url(#clip692)" d="M1123.68 120.735 L1123.68 1486.45 L1161.99 1486.45 L1161.99 120.735 L1123.68 120.735 L1123.68 120.735  Z" fill="#8be9fd" fill-rule="evenodd" fill-opacity="1"/>
<polyline clip-path="url(#clip692)" style="stroke:#f8f8f2; stroke-linecap:round; stroke-linejoin:round; stroke-width:4; stroke-opacity:1; fill:none" points="1123.68,120.735 1123.68,1486.45 1161.99,1486.45 1161.99,120.735 1123.68,120.735 "/>
<path clip-path="url(#clip692)" d="M1161.99 91.4749 L1161.99 1486.45 L1200.29 1486.45 L1200.29 91.4749 L1161.99 91.4749 L1161.99 91.4749  Z" fill="#8be9fd" fill-rule="evenodd" fill-opacity="1"/>
<polyline clip-path="url(#clip692)" style="stroke:#f8f8f2; stroke-linecap:round; stroke-linejoin:round; stroke-width:4; stroke-opacity:1; fill:none" points="1161.99,91.4749 1161.99,1486.45 1200.29,1486.45 1200.29,91.4749 1161.99,91.4749 "/>
<path clip-path="url(#clip692)" d="M1200.29 87.3921 L1200.29 1486.45 L1238.59 1486.45 L1238.59 87.3921 L1200.29 87.3921 L1200.29 87.3921  Z" fill="#8be9fd" fill-rule="evenodd" fill-opacity="1"/>
<polyline clip-path="url(#clip692)" style="stroke:#f8f8f2; stroke-linecap:round; stroke-linejoin:round; stroke-width:4; stroke-opacity:1; fill:none" points="1200.29,87.3921 1200.29,1486.45 1238.59,1486.45 1238.59,87.3921 1200.29,87.3921 "/>
<path clip-path="url(#clip692)" d="M1238.59 160.203 L1238.59 1486.45 L1276.89 1486.45 L1276.89 160.203 L1238.59 160.203 L1238.59 160.203  Z" fill="#8be9fd" fill-rule="evenodd" fill-opacity="1"/>
<polyline clip-path="url(#clip692)" style="stroke:#f8f8f2; stroke-linecap:round; stroke-linejoin:round; stroke-width:4; stroke-opacity:1; fill:none" points="1238.59,160.203 1238.59,1486.45 1276.89,1486.45 1276.89,160.203 1238.59,160.203 "/>
<path clip-path="url(#clip692)" d="M1276.89 87.3921 L1276.89 1486.45 L1315.19 1486.45 L1315.19 87.3921 L1276.89 87.3921 L1276.89 87.3921  Z" fill="#8be9fd" fill-rule="evenodd" fill-opacity="1"/>
<polyline clip-path="url(#clip692)" style="stroke:#f8f8f2; stroke-linecap:round; stroke-linejoin:round; stroke-width:4; stroke-opacity:1; fill:none" points="1276.89,87.3921 1276.89,1486.45 1315.19,1486.45 1315.19,87.3921 1276.89,87.3921 "/>
<path clip-path="url(#clip692)" d="M1315.19 107.806 L1315.19 1486.45 L1353.49 1486.45 L1353.49 107.806 L1315.19 107.806 L1315.19 107.806  Z" fill="#8be9fd" fill-rule="evenodd" fill-opacity="1"/>
<polyline clip-path="url(#clip692)" style="stroke:#f8f8f2; stroke-linecap:round; stroke-linejoin:round; stroke-width:4; stroke-opacity:1; fill:none" points="1315.19,107.806 1315.19,1486.45 1353.49,1486.45 1353.49,107.806 1315.19,107.806 "/>
<path clip-path="url(#clip692)" d="M1353.49 124.138 L1353.49 1486.45 L1391.79 1486.45 L1391.79 124.138 L1353.49 124.138 L1353.49 124.138  Z" fill="#8be9fd" fill-rule="evenodd" fill-opacity="1"/>
<polyline clip-path="url(#clip692)" style="stroke:#f8f8f2; stroke-linecap:round; stroke-linejoin:round; stroke-width:4; stroke-opacity:1; fill:none" points="1353.49,124.138 1353.49,1486.45 1391.79,1486.45 1391.79,124.138 1353.49,124.138 "/>
<path clip-path="url(#clip692)" d="M1391.79 159.522 L1391.79 1486.45 L1430.09 1486.45 L1430.09 159.522 L1391.79 159.522 L1391.79 159.522  Z" fill="#8be9fd" fill-rule="evenodd" fill-opacity="1"/>
<polyline clip-path="url(#clip692)" style="stroke:#f8f8f2; stroke-linecap:round; stroke-linejoin:round; stroke-width:4; stroke-opacity:1; fill:none" points="1391.79,159.522 1391.79,1486.45 1430.09,1486.45 1430.09,159.522 1391.79,159.522 "/>
<path clip-path="url(#clip692)" d="M1430.09 147.274 L1430.09 1486.45 L1468.39 1486.45 L1468.39 147.274 L1430.09 147.274 L1430.09 147.274  Z" fill="#8be9fd" fill-rule="evenodd" fill-opacity="1"/>
<polyline clip-path="url(#clip692)" style="stroke:#f8f8f2; stroke-linecap:round; stroke-linejoin:round; stroke-width:4; stroke-opacity:1; fill:none" points="1430.09,147.274 1430.09,1486.45 1468.39,1486.45 1468.39,147.274 1430.09,147.274 "/>
<path clip-path="url(#clip692)" d="M1468.39 128.221 L1468.39 1486.45 L1506.69 1486.45 L1506.69 128.221 L1468.39 128.221 L1468.39 128.221  Z" fill="#8be9fd" fill-rule="evenodd" fill-opacity="1"/>
<polyline clip-path="url(#clip692)" style="stroke:#f8f8f2; stroke-linecap:round; stroke-linejoin:round; stroke-width:4; stroke-opacity:1; fill:none" points="1468.39,128.221 1468.39,1486.45 1506.69,1486.45 1506.69,128.221 1468.39,128.221 "/>
<path clip-path="url(#clip692)" d="M1506.69 166.327 L1506.69 1486.45 L1544.99 1486.45 L1544.99 166.327 L1506.69 166.327 L1506.69 166.327  Z" fill="#8be9fd" fill-rule="evenodd" fill-opacity="1"/>
<polyline clip-path="url(#clip692)" style="stroke:#f8f8f2; stroke-linecap:round; stroke-linejoin:round; stroke-width:4; stroke-opacity:1; fill:none" points="1506.69,166.327 1506.69,1486.45 1544.99,1486.45 1544.99,166.327 1506.69,166.327 "/>
<path clip-path="url(#clip692)" d="M1544.99 135.706 L1544.99 1486.45 L1583.29 1486.45 L1583.29 135.706 L1544.99 135.706 L1544.99 135.706  Z" fill="#8be9fd" fill-rule="evenodd" fill-opacity="1"/>
<polyline clip-path="url(#clip692)" style="stroke:#f8f8f2; stroke-linecap:round; stroke-linejoin:round; stroke-width:4; stroke-opacity:1; fill:none" points="1544.99,135.706 1544.99,1486.45 1583.29,1486.45 1583.29,135.706 1544.99,135.706 "/>
<path clip-path="url(#clip692)" d="M1583.29 117.333 L1583.29 1486.45 L1621.59 1486.45 L1621.59 117.333 L1583.29 117.333 L1583.29 117.333  Z" fill="#8be9fd" fill-rule="evenodd" fill-opacity="1"/>
<polyline clip-path="url(#clip692)" style="stroke:#f8f8f2; stroke-linecap:round; stroke-linejoin:round; stroke-width:4; stroke-opacity:1; fill:none" points="1583.29,117.333 1583.29,1486.45 1621.59,1486.45 1621.59,117.333 1583.29,117.333 "/>
<path clip-path="url(#clip692)" d="M1621.59 141.15 L1621.59 1486.45 L1659.9 1486.45 L1659.9 141.15 L1621.59 141.15 L1621.59 141.15  Z" fill="#8be9fd" fill-rule="evenodd" fill-opacity="1"/>
<polyline clip-path="url(#clip692)" style="stroke:#f8f8f2; stroke-linecap:round; stroke-linejoin:round; stroke-width:4; stroke-opacity:1; fill:none" points="1621.59,141.15 1621.59,1486.45 1659.9,1486.45 1659.9,141.15 1621.59,141.15 "/>
<path clip-path="url(#clip692)" d="M1659.9 86.7116 L1659.9 1486.45 L1698.2 1486.45 L1698.2 86.7116 L1659.9 86.7116 L1659.9 86.7116  Z" fill="#8be9fd" fill-rule="evenodd" fill-opacity="1"/>
<polyline clip-path="url(#clip692)" style="stroke:#f8f8f2; stroke-linecap:round; stroke-linejoin:round; stroke-width:4; stroke-opacity:1; fill:none" points="1659.9,86.7116 1659.9,1486.45 1698.2,1486.45 1698.2,86.7116 1659.9,86.7116 "/>
<path clip-path="url(#clip692)" d="M1698.2 162.244 L1698.2 1486.45 L1736.5 1486.45 L1736.5 162.244 L1698.2 162.244 L1698.2 162.244  Z" fill="#8be9fd" fill-rule="evenodd" fill-opacity="1"/>
<polyline clip-path="url(#clip692)" style="stroke:#f8f8f2; stroke-linecap:round; stroke-linejoin:round; stroke-width:4; stroke-opacity:1; fill:none" points="1698.2,162.244 1698.2,1486.45 1736.5,1486.45 1736.5,162.244 1698.2,162.244 "/>
<path clip-path="url(#clip692)" d="M1736.5 120.735 L1736.5 1486.45 L1774.8 1486.45 L1774.8 120.735 L1736.5 120.735 L1736.5 120.735  Z" fill="#8be9fd" fill-rule="evenodd" fill-opacity="1"/>
<polyline clip-path="url(#clip692)" style="stroke:#f8f8f2; stroke-linecap:round; stroke-linejoin:round; stroke-width:4; stroke-opacity:1; fill:none" points="1736.5,120.735 1736.5,1486.45 1774.8,1486.45 1774.8,120.735 1736.5,120.735 "/>
<path clip-path="url(#clip692)" d="M1774.8 74.4631 L1774.8 1486.45 L1813.1 1486.45 L1813.1 74.4631 L1774.8 74.4631 L1774.8 74.4631  Z" fill="#8be9fd" fill-rule="evenodd" fill-opacity="1"/>
<polyline clip-path="url(#clip692)" style="stroke:#f8f8f2; stroke-linecap:round; stroke-linejoin:round; stroke-width:4; stroke-opacity:1; fill:none" points="1774.8,74.4631 1774.8,1486.45 1813.1,1486.45 1813.1,74.4631 1774.8,74.4631 "/>
<path clip-path="url(#clip692)" d="M1813.1 147.954 L1813.1 1486.45 L1851.4 1486.45 L1851.4 147.954 L1813.1 147.954 L1813.1 147.954  Z" fill="#8be9fd" fill-rule="evenodd" fill-opacity="1"/>
<polyline clip-path="url(#clip692)" style="stroke:#f8f8f2; stroke-linecap:round; stroke-linejoin:round; stroke-width:4; stroke-opacity:1; fill:none" points="1813.1,147.954 1813.1,1486.45 1851.4,1486.45 1851.4,147.954 1813.1,147.954 "/>
<path clip-path="url(#clip692)" d="M1851.4 124.138 L1851.4 1486.45 L1889.7 1486.45 L1889.7 124.138 L1851.4 124.138 L1851.4 124.138  Z" fill="#8be9fd" fill-rule="evenodd" fill-opacity="1"/>
<polyline clip-path="url(#clip692)" style="stroke:#f8f8f2; stroke-linecap:round; stroke-linejoin:round; stroke-width:4; stroke-opacity:1; fill:none" points="1851.4,124.138 1851.4,1486.45 1889.7,1486.45 1889.7,124.138 1851.4,124.138 "/>
<path clip-path="url(#clip692)" d="M1889.7 156.12 L1889.7 1486.45 L1928 1486.45 L1928 156.12 L1889.7 156.12 L1889.7 156.12  Z" fill="#8be9fd" fill-rule="evenodd" fill-opacity="1"/>
<polyline clip-path="url(#clip692)" style="stroke:#f8f8f2; stroke-linecap:round; stroke-linejoin:round; stroke-width:4; stroke-opacity:1; fill:none" points="1889.7,156.12 1889.7,1486.45 1928,1486.45 1928,156.12 1889.7,156.12 "/>
<path clip-path="url(#clip692)" d="M1928 118.694 L1928 1486.45 L1966.3 1486.45 L1966.3 118.694 L1928 118.694 L1928 118.694  Z" fill="#8be9fd" fill-rule="evenodd" fill-opacity="1"/>
<polyline clip-path="url(#clip692)" style="stroke:#f8f8f2; stroke-linecap:round; stroke-linejoin:round; stroke-width:4; stroke-opacity:1; fill:none" points="1928,118.694 1928,1486.45 1966.3,1486.45 1966.3,118.694 1928,118.694 "/>
<path clip-path="url(#clip692)" d="M1966.3 151.357 L1966.3 1486.45 L2004.6 1486.45 L2004.6 151.357 L1966.3 151.357 L1966.3 151.357  Z" fill="#8be9fd" fill-rule="evenodd" fill-opacity="1"/>
<polyline clip-path="url(#clip692)" style="stroke:#f8f8f2; stroke-linecap:round; stroke-linejoin:round; stroke-width:4; stroke-opacity:1; fill:none" points="1966.3,151.357 1966.3,1486.45 2004.6,1486.45 2004.6,151.357 1966.3,151.357 "/>
<path clip-path="url(#clip692)" d="M2004.6 123.457 L2004.6 1486.45 L2042.9 1486.45 L2042.9 123.457 L2004.6 123.457 L2004.6 123.457  Z" fill="#8be9fd" fill-rule="evenodd" fill-opacity="1"/>
<polyline clip-path="url(#clip692)" style="stroke:#f8f8f2; stroke-linecap:round; stroke-linejoin:round; stroke-width:4; stroke-opacity:1; fill:none" points="2004.6,123.457 2004.6,1486.45 2042.9,1486.45 2042.9,123.457 2004.6,123.457 "/>
<path clip-path="url(#clip692)" d="M2042.9 205.795 L2042.9 1486.45 L2081.2 1486.45 L2081.2 205.795 L2042.9 205.795 L2042.9 205.795  Z" fill="#8be9fd" fill-rule="evenodd" fill-opacity="1"/>
<polyline clip-path="url(#clip692)" style="stroke:#f8f8f2; stroke-linecap:round; stroke-linejoin:round; stroke-width:4; stroke-opacity:1; fill:none" points="2042.9,205.795 2042.9,1486.45 2081.2,1486.45 2081.2,205.795 2042.9,205.795 "/>
<path clip-path="url(#clip692)" d="M2081.2 139.108 L2081.2 1486.45 L2119.5 1486.45 L2119.5 139.108 L2081.2 139.108 L2081.2 139.108  Z" fill="#8be9fd" fill-rule="evenodd" fill-opacity="1"/>
<polyline clip-path="url(#clip692)" style="stroke:#f8f8f2; stroke-linecap:round; stroke-linejoin:round; stroke-width:4; stroke-opacity:1; fill:none" points="2081.2,139.108 2081.2,1486.45 2119.5,1486.45 2119.5,139.108 2081.2,139.108 "/>
<path clip-path="url(#clip692)" d="M2119.5 137.067 L2119.5 1486.45 L2157.81 1486.45 L2157.81 137.067 L2119.5 137.067 L2119.5 137.067  Z" fill="#8be9fd" fill-rule="evenodd" fill-opacity="1"/>
<polyline clip-path="url(#clip692)" style="stroke:#f8f8f2; stroke-linecap:round; stroke-linejoin:round; stroke-width:4; stroke-opacity:1; fill:none" points="2119.5,137.067 2119.5,1486.45 2157.81,1486.45 2157.81,137.067 2119.5,137.067 "/>
<path clip-path="url(#clip692)" d="M2157.81 109.848 L2157.81 1486.45 L2196.11 1486.45 L2196.11 109.848 L2157.81 109.848 L2157.81 109.848  Z" fill="#8be9fd" fill-rule="evenodd" fill-opacity="1"/>
<polyline clip-path="url(#clip692)" style="stroke:#f8f8f2; stroke-linecap:round; stroke-linejoin:round; stroke-width:4; stroke-opacity:1; fill:none" points="2157.81,109.848 2157.81,1486.45 2196.11,1486.45 2196.11,109.848 2157.81,109.848 "/>
<path clip-path="url(#clip692)" d="M2196.11 156.801 L2196.11 1486.45 L2234.41 1486.45 L2234.41 156.801 L2196.11 156.801 L2196.11 156.801  Z" fill="#8be9fd" fill-rule="evenodd" fill-opacity="1"/>
<polyline clip-path="url(#clip692)" style="stroke:#f8f8f2; stroke-linecap:round; stroke-linejoin:round; stroke-width:4; stroke-opacity:1; fill:none" points="2196.11,156.801 2196.11,1486.45 2234.41,1486.45 2234.41,156.801 2196.11,156.801 "/>
<circle clip-path="url(#clip692)" style="fill:#8be9fd; stroke:none; fill-opacity:0" cx="338.519" cy="93.5164" r="2"/>
<circle clip-path="url(#clip692)" style="fill:#8be9fd; stroke:none; fill-opacity:0" cx="376.82" cy="161.564" r="2"/>
<circle clip-path="url(#clip692)" style="fill:#8be9fd; stroke:none; fill-opacity:0" cx="415.121" cy="109.848" r="2"/>
<circle clip-path="url(#clip692)" style="fill:#8be9fd; stroke:none; fill-opacity:0" cx="453.421" cy="113.931" r="2"/>
<circle clip-path="url(#clip692)" style="fill:#8be9fd; stroke:none; fill-opacity:0" cx="491.722" cy="71.0607" r="2"/>
<circle clip-path="url(#clip692)" style="fill:#8be9fd; stroke:none; fill-opacity:0" cx="530.023" cy="130.262" r="2"/>
<circle clip-path="url(#clip692)" style="fill:#8be9fd; stroke:none; fill-opacity:0" cx="568.324" cy="175.854" r="2"/>
<circle clip-path="url(#clip692)" style="fill:#8be9fd; stroke:none; fill-opacity:0" cx="606.624" cy="77.185" r="2"/>
<circle clip-path="url(#clip692)" style="fill:#8be9fd; stroke:none; fill-opacity:0" cx="644.925" cy="47.2441" r="2"/>
<circle clip-path="url(#clip692)" style="fill:#8be9fd; stroke:none; fill-opacity:0" cx="683.226" cy="113.931" r="2"/>
<circle clip-path="url(#clip692)" style="fill:#8be9fd; stroke:none; fill-opacity:0" cx="721.527" cy="125.499" r="2"/>
<circle clip-path="url(#clip692)" style="fill:#8be9fd; stroke:none; fill-opacity:0" cx="759.827" cy="143.871" r="2"/>
<circle clip-path="url(#clip692)" style="fill:#8be9fd; stroke:none; fill-opacity:0" cx="798.128" cy="88.0726" r="2"/>
<circle clip-path="url(#clip692)" style="fill:#8be9fd; stroke:none; fill-opacity:0" cx="836.429" cy="139.789" r="2"/>
<circle clip-path="url(#clip692)" style="fill:#8be9fd; stroke:none; fill-opacity:0" cx="874.73" cy="147.954" r="2"/>
<circle clip-path="url(#clip692)" style="fill:#8be9fd; stroke:none; fill-opacity:0" cx="913.03" cy="102.363" r="2"/>
<circle clip-path="url(#clip692)" style="fill:#8be9fd; stroke:none; fill-opacity:0" cx="951.331" cy="169.049" r="2"/>
<circle clip-path="url(#clip692)" style="fill:#8be9fd; stroke:none; fill-opacity:0" cx="989.632" cy="134.345" r="2"/>
<circle clip-path="url(#clip692)" style="fill:#8be9fd; stroke:none; fill-opacity:0" cx="1027.93" cy="97.5992" r="2"/>
<circle clip-path="url(#clip692)" style="fill:#8be9fd; stroke:none; fill-opacity:0" cx="1066.23" cy="75.824" r="2"/>
<circle clip-path="url(#clip692)" style="fill:#8be9fd; stroke:none; fill-opacity:0" cx="1104.53" cy="167.008" r="2"/>
<circle clip-path="url(#clip692)" style="fill:#8be9fd; stroke:none; fill-opacity:0" cx="1142.83" cy="120.735" r="2"/>
<circle clip-path="url(#clip692)" style="fill:#8be9fd; stroke:none; fill-opacity:0" cx="1181.14" cy="91.4749" r="2"/>
<circle clip-path="url(#clip692)" style="fill:#8be9fd; stroke:none; fill-opacity:0" cx="1219.44" cy="87.3921" r="2"/>
<circle clip-path="url(#clip692)" style="fill:#8be9fd; stroke:none; fill-opacity:0" cx="1257.74" cy="160.203" r="2"/>
<circle clip-path="url(#clip692)" style="fill:#8be9fd; stroke:none; fill-opacity:0" cx="1296.04" cy="87.3921" r="2"/>
<circle clip-path="url(#clip692)" style="fill:#8be9fd; stroke:none; fill-opacity:0" cx="1334.34" cy="107.806" r="2"/>
<circle clip-path="url(#clip692)" style="fill:#8be9fd; stroke:none; fill-opacity:0" cx="1372.64" cy="124.138" r="2"/>
<circle clip-path="url(#clip692)" style="fill:#8be9fd; stroke:none; fill-opacity:0" cx="1410.94" cy="159.522" r="2"/>
<circle clip-path="url(#clip692)" style="fill:#8be9fd; stroke:none; fill-opacity:0" cx="1449.24" cy="147.274" r="2"/>
<circle clip-path="url(#clip692)" style="fill:#8be9fd; stroke:none; fill-opacity:0" cx="1487.54" cy="128.221" r="2"/>
<circle clip-path="url(#clip692)" style="fill:#8be9fd; stroke:none; fill-opacity:0" cx="1525.84" cy="166.327" r="2"/>
<circle clip-path="url(#clip692)" style="fill:#8be9fd; stroke:none; fill-opacity:0" cx="1564.14" cy="135.706" r="2"/>
<circle clip-path="url(#clip692)" style="fill:#8be9fd; stroke:none; fill-opacity:0" cx="1602.44" cy="117.333" r="2"/>
<circle clip-path="url(#clip692)" style="fill:#8be9fd; stroke:none; fill-opacity:0" cx="1640.74" cy="141.15" r="2"/>
<circle clip-path="url(#clip692)" style="fill:#8be9fd; stroke:none; fill-opacity:0" cx="1679.05" cy="86.7116" r="2"/>
<circle clip-path="url(#clip692)" style="fill:#8be9fd; stroke:none; fill-opacity:0" cx="1717.35" cy="162.244" r="2"/>
<circle clip-path="url(#clip692)" style="fill:#8be9fd; stroke:none; fill-opacity:0" cx="1755.65" cy="120.735" r="2"/>
<circle clip-path="url(#clip692)" style="fill:#8be9fd; stroke:none; fill-opacity:0" cx="1793.95" cy="74.4631" r="2"/>
<circle clip-path="url(#clip692)" style="fill:#8be9fd; stroke:none; fill-opacity:0" cx="1832.25" cy="147.954" r="2"/>
<circle clip-path="url(#clip692)" style="fill:#8be9fd; stroke:none; fill-opacity:0" cx="1870.55" cy="124.138" r="2"/>
<circle clip-path="url(#clip692)" style="fill:#8be9fd; stroke:none; fill-opacity:0" cx="1908.85" cy="156.12" r="2"/>
<circle clip-path="url(#clip692)" style="fill:#8be9fd; stroke:none; fill-opacity:0" cx="1947.15" cy="118.694" r="2"/>
<circle clip-path="url(#clip692)" style="fill:#8be9fd; stroke:none; fill-opacity:0" cx="1985.45" cy="151.357" r="2"/>
<circle clip-path="url(#clip692)" style="fill:#8be9fd; stroke:none; fill-opacity:0" cx="2023.75" cy="123.457" r="2"/>
<circle clip-path="url(#clip692)" style="fill:#8be9fd; stroke:none; fill-opacity:0" cx="2062.05" cy="205.795" r="2"/>
<circle clip-path="url(#clip692)" style="fill:#8be9fd; stroke:none; fill-opacity:0" cx="2100.35" cy="139.108" r="2"/>
<circle clip-path="url(#clip692)" style="fill:#8be9fd; stroke:none; fill-opacity:0" cx="2138.65" cy="137.067" r="2"/>
<circle clip-path="url(#clip692)" style="fill:#8be9fd; stroke:none; fill-opacity:0" cx="2176.96" cy="109.848" r="2"/>
<circle clip-path="url(#clip692)" style="fill:#8be9fd; stroke:none; fill-opacity:0" cx="2215.26" cy="156.801" r="2"/>
</svg>
